NotoSansGlagolitic-Regular.ufo
<glyph name="tildecomb" format="2">
  <unicode hex="0303"/>
  <outline>
    <contour>
      <point x="-184" y="605" type="curve"/>
      <point x="-132" y="605" type="line"/>
      <point x="-124" y="645"/>
      <point x="-109" y="664"/>
      <point x="-77" y="664" type="curve" smooth="yes"/>
      <point x="-33" y="664"/>
      <point x="19" y="606"/>
      <point x="75" y="606" type="curve" smooth="yes"/>
      <point x="138" y="606"/>
      <point x="176" y="657"/>
      <point x="184" y="734" type="curve"/>
      <point x="134" y="734" type="line"/>
      <point x="124" y="695"/>
      <point x="109" y="676"/>
      <point x="79" y="676" type="curve" smooth="yes"/>
      <point x="37" y="676"/>
      <point x="-14" y="733"/>
      <point x="-73" y="733" type="curve" smooth="yes"/>
      <point x="-136" y="733"/>
      <point x="-175" y="685"/>
    </contour>
  </outline>
</glyph>
<glyph name="uni0484" format="2">
  <unicode hex="0484"/>
  <outline>
    <contour>
      <point x="119" y="605" type="curve"/>
      <point x="182" y="605" type="line"/>
      <point x="182" y="622" type="line" smooth="yes"/>
      <point x="182" y="693"/>
      <point x="140" y="725"/>
      <point x="68" y="725" type="curve" smooth="yes"/>
      <point x="-8" y="725"/>
      <point x="-74" y="668"/>
      <point x="-176" y="668" type="curve" smooth="yes"/>
      <point x="-182" y="668" type="line"/>
      <point x="-182" y="607" type="line"/>
      <point x="-174" y="607" type="line" smooth="yes"/>
      <point x="-62" y="607"/>
      <point x="10" y="664"/>
      <point x="66" y="664" type="curve" smooth="yes"/>
      <point x="94" y="664"/>
      <point x="119" y="654"/>
    </contour>
  </outline>
</glyph>
<glyph name="uni2C07" format="2">
  <advance width="854"/>
  <unicode hex="2C07"/>
  <outline>
    <contour>
      <point x="195" y="0" type="curve" smooth="yes"/>
      <point x="658" y="0" type="line" smooth="yes"/>
      <point x="736" y="0"/>
      <point x="756" y="20"/>
      <point x="756" y="98" type="curve" smooth="yes"/>
      <point x="756" y="315" type="line" smooth="yes"/>
      <point x="756" y="392"/>
      <point x="737" y="412"/>
      <point x="662" y="413" type="curve"/>
      <point x="724" y="461"/>
      <point x="756" y="532"/>
      <point x="756" y="610" type="curve" smooth="yes"/>
      <point x="756" y="651" type="line" smooth="yes"/>
      <point x="756" y="701"/>
      <point x="735" y="714"/>
      <point x="692" y="714" type="curve" smooth="yes"/>
      <point x="479" y="714" type="line" smooth="yes"/>
      <point x="401" y="714"/>
      <point x="382" y="694"/>
      <point x="382" y="616" type="curve" smooth="yes"/>
      <point x="382" y="413" type="line"/>
      <point x="195" y="413" type="line" smooth="yes"/>
      <point x="117" y="413"/>
      <point x="98" y="394"/>
      <point x="98" y="315" type="curve" smooth="yes"/>
      <point x="98" y="98" type="line" smooth="yes"/>
      <point x="98" y="20"/>
      <point x="117" y="0"/>
    </contour>
    <contour>
      <point x="236" y="79" type="line" smooth="yes"/>
      <point x="197" y="79"/>
      <point x="188" y="89"/>
      <point x="188" y="128" type="curve" smooth="yes"/>
      <point x="188" y="285" type="line" smooth="yes"/>
      <point x="188" y="324"/>
      <point x="197" y="334"/>
      <point x="236" y="334" type="curve" smooth="yes"/>
      <point x="382" y="334" type="line"/>
      <point x="382" y="79" type="line"/>
    </contour>
    <contour>
      <point x="472" y="79" type="line"/>
      <point x="472" y="334" type="line"/>
      <point x="617" y="334" type="line" smooth="yes"/>
      <point x="656" y="334"/>
      <point x="666" y="324"/>
      <point x="666" y="285" type="curve" smooth="yes"/>
      <point x="666" y="128" type="line" smooth="yes"/>
      <point x="666" y="89"/>
      <point x="656" y="79"/>
      <point x="617" y="79" type="curve" smooth="yes"/>
    </contour>
    <contour>
      <point x="472" y="413" type="line"/>
      <point x="472" y="586" type="line" smooth="yes"/>
      <point x="472" y="625"/>
      <point x="481" y="635"/>
      <point x="521" y="635" type="curve" smooth="yes"/>
      <point x="630" y="635" type="line" smooth="yes"/>
      <point x="662" y="635"/>
      <point x="666" y="623"/>
      <point x="666" y="602" type="curve" smooth="yes"/>
      <point x="666" y="534"/>
      <point x="633" y="429"/>
      <point x="488" y="413" type="curve"/>
    </contour>
  </outline>
</glyph>
<glyph name="uni2C09" format="2">
  <advance width="1072"/>
  <unicode hex="2C09"/>
  <outline>
    <contour>
      <point x="388" y="0" type="line"/>
      <point x="685" y="0" type="line"/>
      <point x="685" y="79" type="line"/>
      <point x="581" y="79" type="line"/>
      <point x="581" y="313" type="line"/>
      <point x="622" y="321"/>
      <point x="652" y="340"/>
      <point x="673" y="367" type="curve"/>
      <point x="701" y="332"/>
      <point x="744" y="309"/>
      <point x="812" y="309" type="curve" smooth="yes"/>
      <point x="955" y="309"/>
      <point x="994" y="398"/>
      <point x="994" y="536" type="curve" smooth="yes"/>
      <point x="994" y="714" type="line"/>
      <point x="78" y="714" type="line"/>
      <point x="78" y="536" type="line" smooth="yes"/>
      <point x="78" y="398"/>
      <point x="117" y="309"/>
      <point x="261" y="309" type="curve" smooth="yes"/>
      <point x="328" y="309"/>
      <point x="371" y="332"/>
      <point x="398" y="367" type="curve"/>
      <point x="419" y="340"/>
      <point x="449" y="321"/>
      <point x="491" y="313" type="curve"/>
      <point x="491" y="79" type="line"/>
      <point x="388" y="79" type="line"/>
    </contour>
    <contour>
      <point x="261" y="388" type="curve" smooth="yes"/>
      <point x="180" y="388"/>
      <point x="168" y="439"/>
      <point x="168" y="536" type="curve" smooth="yes"/>
      <point x="168" y="635" type="line"/>
      <point x="354" y="635" type="line"/>
      <point x="354" y="536" type="line" smooth="yes"/>
      <point x="354" y="438"/>
      <point x="341" y="388"/>
    </contour>
    <contour>
      <point x="536" y="388" type="curve" smooth="yes"/>
      <point x="458" y="388"/>
      <point x="443" y="436"/>
      <point x="443" y="528" type="curve" smooth="yes"/>
      <point x="443" y="635" type="line"/>
      <point x="629" y="635" type="line"/>
      <point x="629" y="528" type="line" smooth="yes"/>
      <point x="629" y="437"/>
      <point x="615" y="388"/>
    </contour>
    <contour>
      <point x="812" y="388" type="curve" smooth="yes"/>
      <point x="734" y="388"/>
      <point x="719" y="436"/>
      <point x="719" y="527" type="curve" smooth="yes"/>
      <point x="719" y="635" type="line"/>
      <point x="904" y="635" type="line"/>
      <point x="904" y="536" type="line" smooth="yes"/>
      <point x="904" y="439"/>
      <point x="893" y="388"/>
    </contour>
  </outline>
</glyph>
<glyph name="uni2C0A" format="2">
  <advance width="1072"/>
  <unicode hex="2C0A"/>
  <outline>
    <contour>
      <point x="354" y="0" type="line"/>
      <point x="719" y="0" type="line"/>
      <point x="719" y="168" type="line" smooth="yes"/>
      <point x="719" y="242"/>
      <point x="704" y="309"/>
      <point x="657" y="350" type="curve"/>
      <point x="673" y="367" type="line"/>
      <point x="701" y="332"/>
      <point x="744" y="309"/>
      <point x="812" y="309" type="curve" smooth="yes"/>
      <point x="955" y="309"/>
      <point x="994" y="398"/>
      <point x="994" y="536" type="curve" smooth="yes"/>
      <point x="994" y="714" type="line"/>
      <point x="78" y="714" type="line"/>
      <point x="78" y="536" type="line" smooth="yes"/>
      <point x="78" y="398"/>
      <point x="117" y="309"/>
      <point x="261" y="309" type="curve" smooth="yes"/>
      <point x="328" y="309"/>
      <point x="371" y="332"/>
      <point x="398" y="367" type="curve"/>
      <point x="415" y="350" type="line"/>
      <point x="365" y="307"/>
      <point x="354" y="235"/>
      <point x="354" y="168" type="curve" smooth="yes"/>
    </contour>
    <contour>
      <point x="443" y="79" type="line"/>
      <point x="443" y="168" type="line" smooth="yes"/>
      <point x="443" y="266"/>
      <point x="456" y="309"/>
      <point x="536" y="309" type="curve" smooth="yes"/>
      <point x="617" y="309"/>
      <point x="629" y="265"/>
      <point x="629" y="168" type="curve" smooth="yes"/>
      <point x="629" y="79" type="line"/>
    </contour>
    <contour>
      <point x="261" y="388" type="curve" smooth="yes"/>
      <point x="180" y="388"/>
      <point x="168" y="439"/>
      <point x="168" y="536" type="curve" smooth="yes"/>
      <point x="168" y="635" type="line"/>
      <point x="354" y="635" type="line"/>
      <point x="354" y="536" type="line" smooth="yes"/>
      <point x="354" y="438"/>
      <point x="341" y="388"/>
    </contour>
    <contour>
      <point x="536" y="388" type="curve" smooth="yes"/>
      <point x="456" y="388"/>
      <point x="443" y="438"/>
      <point x="443" y="536" type="curve" smooth="yes"/>
      <point x="443" y="635" type="line"/>
      <point x="629" y="635" type="line"/>
      <point x="629" y="536" type="line" smooth="yes"/>
      <point x="629" y="437"/>
      <point x="615" y="388"/>
    </contour>
    <contour>
      <point x="812" y="388" type="curve" smooth="yes"/>
      <point x="734" y="388"/>
      <point x="719" y="436"/>
      <point x="719" y="536" type="curve" smooth="yes"/>
      <point x="719" y="635" type="line"/>
      <point x="904" y="635" type="line"/>
      <point x="904" y="536" type="line" smooth="yes"/>
      <point x="904" y="439"/>
      <point x="893" y="388"/>
    </contour>
  </outline>
</glyph>
<glyph name="uni2C17" format="2">
  <advance width="796"/>
  <unicode hex="2C17"/>
  <outline>
    <contour>
      <point x="353" y="-107" type="line"/>
      <point x="442" y="-107" type="line"/>
      <point x="442" y="-7" type="line"/>
      <point x="629" y="11"/>
      <point x="728" y="153"/>
      <point x="728" y="358" type="curve" smooth="yes"/>
      <point x="728" y="564"/>
      <point x="628" y="705"/>
      <point x="442" y="723" type="curve"/>
      <point x="442" y="812" type="line"/>
      <point x="353" y="812" type="line"/>
      <point x="353" y="723" type="line"/>
      <point x="160" y="703"/>
      <point x="68" y="562"/>
      <point x="68" y="359" type="curve" smooth="yes"/>
      <point x="68" y="154"/>
      <point x="161" y="12"/>
      <point x="353" y="-7" type="curve"/>
    </contour>
    <contour>
      <point x="353" y="69" type="line"/>
      <point x="222" y="88"/>
      <point x="159" y="196"/>
      <point x="159" y="358" type="curve" smooth="yes"/>
      <point x="159" y="520"/>
      <point x="222" y="625"/>
      <point x="353" y="645" type="curve"/>
    </contour>
    <contour>
      <point x="442" y="68" type="curve"/>
      <point x="442" y="646" type="line"/>
      <point x="574" y="627"/>
      <point x="637" y="521"/>
      <point x="637" y="358" type="curve" smooth="yes"/>
      <point x="637" y="195"/>
      <point x="574" y="87"/>
    </contour>
  </outline>
</glyph>
<glyph name="uni2C1B" format="2">
  <advance width="818"/>
  <unicode hex="2C1B"/>
  <outline>
    <contour>
      <point x="227" y="0" type="line"/>
      <point x="592" y="0" type="line"/>
      <point x="592" y="193" type="line" smooth="yes"/>
      <point x="592" y="246"/>
      <point x="584" y="295"/>
      <point x="563" y="334" type="curve"/>
      <point x="642" y="334" type="line" smooth="yes"/>
      <point x="720" y="334"/>
      <point x="740" y="354"/>
      <point x="740" y="432" type="curve" smooth="yes"/>
      <point x="740" y="714" type="line"/>
      <point x="650" y="714" type="line"/>
      <point x="650" y="462" type="line" smooth="yes"/>
      <point x="650" y="423"/>
      <point x="640" y="413"/>
      <point x="601" y="413" type="curve" smooth="yes"/>
      <point x="454" y="413" type="line"/>
      <point x="454" y="714" type="line"/>
      <point x="364" y="714" type="line"/>
      <point x="364" y="413" type="line"/>
      <point x="217" y="413" type="line" smooth="yes"/>
      <point x="178" y="413"/>
      <point x="168" y="423"/>
      <point x="168" y="462" type="curve" smooth="yes"/>
      <point x="168" y="714" type="line"/>
      <point x="78" y="714" type="line"/>
      <point x="78" y="432" type="line" smooth="yes"/>
      <point x="78" y="354"/>
      <point x="98" y="334"/>
      <point x="176" y="334" type="curve" smooth="yes"/>
      <point x="255" y="334" type="line"/>
      <point x="232" y="293"/>
      <point x="227" y="242"/>
      <point x="227" y="193" type="curve" smooth="yes"/>
    </contour>
    <contour>
      <point x="316" y="79" type="line"/>
      <point x="316" y="193" type="line" smooth="yes"/>
      <point x="316" y="291"/>
      <point x="329" y="333"/>
      <point x="409" y="333" type="curve" smooth="yes"/>
      <point x="490" y="333"/>
      <point x="502" y="290"/>
      <point x="502" y="193" type="curve" smooth="yes"/>
      <point x="502" y="79" type="line"/>
    </contour>
  </outline>
</glyph>
<glyph name="uni2C1C" format="2">
  <advance width="840"/>
  <unicode hex="2C1C"/>
  <outline>
    <contour>
      <point x="502" y="0" type="curve" smooth="yes"/>
      <point x="636" y="0" type="line" smooth="yes"/>
      <point x="676" y="0"/>
      <point x="686" y="36"/>
      <point x="696" y="98" type="curve" smooth="yes"/>
      <point x="791" y="714" type="line"/>
      <point x="703" y="714" type="line"/>
      <point x="612" y="128" type="line" smooth="yes"/>
      <point x="606" y="91"/>
      <point x="603" y="79"/>
      <point x="570" y="79" type="curve" smooth="yes"/>
      <point x="538" y="79"/>
      <point x="533" y="92"/>
      <point x="528" y="128" type="curve" smooth="yes"/>
      <point x="454" y="616" type="line" smooth="yes"/>
      <point x="442" y="698"/>
      <point x="439" y="714"/>
      <point x="356" y="714" type="curve" smooth="yes"/>
      <point x="179" y="714" type="line" smooth="yes"/>
      <point x="80" y="714"/>
      <point x="68" y="637"/>
      <point x="68" y="575" type="curve" smooth="yes"/>
      <point x="68" y="419"/>
      <point x="207" y="334"/>
      <point x="385" y="334" type="curve" smooth="yes"/>
      <point x="406" y="334" type="line"/>
      <point x="441" y="98" type="line" smooth="yes"/>
      <point x="450" y="36"/>
      <point x="461" y="0"/>
    </contour>
    <contour>
      <point x="374" y="413" type="line" smooth="yes"/>
      <point x="243" y="413"/>
      <point x="158" y="469"/>
      <point x="158" y="561" type="curve" smooth="yes"/>
      <point x="158" y="606"/>
      <point x="164" y="635"/>
      <point x="210" y="635" type="curve" smooth="yes"/>
      <point x="331" y="635" type="line" smooth="yes"/>
      <point x="358" y="635"/>
      <point x="363" y="618"/>
      <point x="367" y="592" type="curve" smooth="yes"/>
      <point x="395" y="413" type="line"/>
    </contour>
  </outline>
</glyph>
<glyph name="uni2C1D" format="2">
  <advance width="909"/>
  <unicode hex="2C1D"/>
  <outline>
    <contour>
      <point x="272" y="0" type="line"/>
      <point x="637" y="0" type="line"/>
      <point x="637" y="169" type="line" smooth="yes"/>
      <point x="637" y="233"/>
      <point x="625" y="293"/>
      <point x="592" y="334" type="curve"/>
      <point x="860" y="334" type="line"/>
      <point x="710" y="714" type="line"/>
      <point x="620" y="714" type="line"/>
      <point x="664" y="603" type="line"/>
      <point x="245" y="603" type="line"/>
      <point x="289" y="714" type="line"/>
      <point x="199" y="714" type="line"/>
      <point x="49" y="334" type="line"/>
      <point x="316" y="334" type="line"/>
      <point x="281" y="291"/>
      <point x="272" y="228"/>
      <point x="272" y="169" type="curve" smooth="yes"/>
    </contour>
    <contour>
      <point x="362" y="79" type="line"/>
      <point x="362" y="169" type="line" smooth="yes"/>
      <point x="362" y="267"/>
      <point x="375" y="310"/>
      <point x="455" y="310" type="curve" smooth="yes"/>
      <point x="536" y="310"/>
      <point x="547" y="266"/>
      <point x="547" y="169" type="curve" smooth="yes"/>
      <point x="547" y="79" type="line"/>
    </contour>
    <contour>
      <point x="170" y="413" type="line"/>
      <point x="213" y="523" type="line"/>
      <point x="409" y="523" type="line"/>
      <point x="409" y="413" type="line"/>
    </contour>
    <contour>
      <point x="500" y="413" type="line"/>
      <point x="500" y="523" type="line"/>
      <point x="695" y="523" type="line"/>
      <point x="739" y="413" type="line"/>
    </contour>
  </outline>
</glyph>
<glyph name="uni2C1E" format="2">
  <advance width="857"/>
  <unicode hex="2C1E"/>
  <outline>
    <contour>
      <point x="195" y="0" type="curve" smooth="yes"/>
      <point x="662" y="0" type="line" smooth="yes"/>
      <point x="740" y="0"/>
      <point x="759" y="20"/>
      <point x="759" y="98" type="curve" smooth="yes"/>
      <point x="759" y="714" type="line"/>
      <point x="669" y="714" type="line"/>
      <point x="669" y="128" type="line" smooth="yes"/>
      <point x="669" y="89"/>
      <point x="660" y="79"/>
      <point x="621" y="79" type="curve" smooth="yes"/>
      <point x="473" y="79" type="line"/>
      <point x="473" y="714" type="line"/>
      <point x="383" y="714" type="line"/>
      <point x="383" y="79" type="line"/>
      <point x="236" y="79" type="line" smooth="yes"/>
      <point x="197" y="79"/>
      <point x="188" y="89"/>
      <point x="188" y="128" type="curve" smooth="yes"/>
      <point x="188" y="714" type="line"/>
      <point x="98" y="714" type="line"/>
      <point x="98" y="98" type="line" smooth="yes"/>
      <point x="98" y="20"/>
      <point x="117" y="0"/>
    </contour>
  </outline>
</glyph>
<glyph name="uni2C20" format="2">
  <advance width="699"/>
  <unicode hex="2C20"/>
  <outline>
    <contour>
      <point x="256" y="0" type="line"/>
      <point x="621" y="0" type="line"/>
      <point x="621" y="178" type="line" smooth="yes"/>
      <point x="621" y="251"/>
      <point x="606" y="322"/>
      <point x="560" y="364" type="curve"/>
      <point x="606" y="404"/>
      <point x="621" y="472"/>
      <point x="621" y="546" type="curve" smooth="yes"/>
      <point x="621" y="714" type="line"/>
      <point x="256" y="714" type="line"/>
      <point x="256" y="546" type="line" smooth="yes"/>
      <point x="256" y="500"/>
      <point x="261" y="452"/>
      <point x="280" y="413" type="curve"/>
      <point x="118" y="413" type="line" smooth="yes"/>
      <point x="69" y="413"/>
      <point x="29" y="369"/>
      <point x="29" y="313" type="curve" smooth="yes"/>
      <point x="29" y="257"/>
      <point x="69" y="212"/>
      <point x="118" y="212" type="curve" smooth="yes"/>
      <point x="167" y="212"/>
      <point x="207" y="257"/>
      <point x="207" y="313" type="curve" smooth="yes"/>
      <point x="207" y="320"/>
      <point x="206" y="327"/>
      <point x="205" y="334" type="curve"/>
      <point x="292" y="334" type="line"/>
      <point x="263" y="290"/>
      <point x="256" y="231"/>
      <point x="256" y="178" type="curve" smooth="yes"/>
    </contour>
    <contour>
      <point x="346" y="79" type="line"/>
      <point x="346" y="178" type="line" smooth="yes"/>
      <point x="346" y="275"/>
      <point x="358" y="326"/>
      <point x="438" y="326" type="curve" smooth="yes"/>
      <point x="520" y="326"/>
      <point x="531" y="274"/>
      <point x="531" y="178" type="curve" smooth="yes"/>
      <point x="531" y="79" type="line"/>
    </contour>
    <contour>
      <point x="438" y="405" type="curve" smooth="yes"/>
      <point x="358" y="405"/>
      <point x="346" y="448"/>
      <point x="346" y="546" type="curve" smooth="yes"/>
      <point x="346" y="635" type="line"/>
      <point x="531" y="635" type="line"/>
      <point x="531" y="546" type="line" smooth="yes"/>
      <point x="531" y="449"/>
      <point x="520" y="405"/>
    </contour>
  </outline>
</glyph>
<glyph name="uni2C22" format="2">
  <advance width="778"/>
  <unicode hex="2C22"/>
  <outline>
    <contour>
      <point x="459" y="-34" type="line"/>
      <point x="535" y="-34" type="line"/>
      <point x="535" y="55" type="line"/>
      <point x="563" y="68"/>
      <point x="589" y="86"/>
      <point x="611" y="107" type="curve"/>
      <point x="611" y="-34" type="line"/>
      <point x="686" y="-34" type="line"/>
      <point x="686" y="222" type="line"/>
      <point x="702" y="264"/>
      <point x="709" y="309"/>
      <point x="709" y="356" type="curve" smooth="yes"/>
      <point x="709" y="547"/>
      <point x="598" y="687"/>
      <point x="390" y="687" type="curve" smooth="yes"/>
      <point x="371" y="687"/>
      <point x="354" y="686"/>
      <point x="336" y="683" type="curve"/>
      <point x="336" y="746" type="line"/>
      <point x="261" y="746" type="line"/>
      <point x="261" y="665" type="line"/>
      <point x="232" y="654"/>
      <point x="207" y="640"/>
      <point x="185" y="623" type="curve"/>
      <point x="185" y="746" type="line"/>
      <point x="110" y="746" type="line"/>
      <point x="110" y="533" type="line"/>
      <point x="82" y="481"/>
      <point x="68" y="420"/>
      <point x="68" y="357" type="curve" smooth="yes"/>
      <point x="68" y="167"/>
      <point x="172" y="24"/>
      <point x="389" y="24" type="curve" smooth="yes"/>
      <point x="414" y="24"/>
      <point x="438" y="27"/>
      <point x="459" y="31" type="curve"/>
    </contour>
    <contour>
      <point x="389" y="102" type="curve" smooth="yes"/>
      <point x="233" y="102"/>
      <point x="163" y="204"/>
      <point x="163" y="356" type="curve" smooth="yes"/>
      <point x="163" y="508"/>
      <point x="233" y="608"/>
      <point x="390" y="608" type="curve" smooth="yes"/>
      <point x="547" y="608"/>
      <point x="614" y="508"/>
      <point x="614" y="356" type="curve" smooth="yes"/>
      <point x="614" y="204"/>
      <point x="547" y="102"/>
    </contour>
  </outline>
</glyph>
<glyph name="uni2C23" format="2">
  <advance width="857"/>
  <unicode hex="2C23"/>
  <outline>
    <contour>
      <point x="98" y="-82" type="line"/>
      <point x="721" y="125" type="line"/>
      <point x="757" y="137"/>
      <point x="759" y="176"/>
      <point x="759" y="233" type="curve" smooth="yes"/>
      <point x="759" y="616" type="line" smooth="yes"/>
      <point x="759" y="694"/>
      <point x="740" y="714"/>
      <point x="662" y="714" type="curve" smooth="yes"/>
      <point x="195" y="714" type="line" smooth="yes"/>
      <point x="117" y="714"/>
      <point x="98" y="694"/>
      <point x="98" y="616" type="curve" smooth="yes"/>
    </contour>
    <contour>
      <point x="188" y="33" type="line"/>
      <point x="188" y="586" type="line" smooth="yes"/>
      <point x="188" y="625"/>
      <point x="197" y="635"/>
      <point x="236" y="635" type="curve" smooth="yes"/>
      <point x="383" y="635" type="line"/>
      <point x="383" y="98" type="line"/>
    </contour>
    <contour>
      <point x="473" y="128" type="line"/>
      <point x="473" y="635" type="line"/>
      <point x="621" y="635" type="line" smooth="yes"/>
      <point x="660" y="635"/>
      <point x="669" y="625"/>
      <point x="669" y="586" type="curve" smooth="yes"/>
      <point x="669" y="229" type="line" smooth="yes"/>
      <point x="669" y="206"/>
      <point x="660" y="190"/>
      <point x="637" y="182" type="curve" smooth="yes"/>
    </contour>
  </outline>
</glyph>
<glyph name="uni2C25" format="2">
  <advance width="850"/>
  <unicode hex="2C25"/>
  <outline>
    <contour>
      <point x="604" y="-10" type="curve" smooth="yes"/>
      <point x="688" y="-10"/>
      <point x="739" y="-1"/>
      <point x="794" y="19" type="curve"/>
      <point x="794" y="97" type="line"/>
      <point x="739" y="82"/>
      <point x="683" y="69"/>
      <point x="619" y="69" type="curve" smooth="yes"/>
      <point x="447" y="69"/>
      <point x="359" y="163"/>
      <point x="354" y="334" type="curve"/>
      <point x="702" y="334" type="line"/>
      <point x="702" y="413" type="line"/>
      <point x="355" y="413" type="line"/>
      <point x="369" y="559"/>
      <point x="460" y="645"/>
      <point x="599" y="645" type="curve" smooth="yes"/>
      <point x="666" y="645"/>
      <point x="720" y="627"/>
      <point x="764" y="607" type="curve"/>
      <point x="801" y="682" type="line"/>
      <point x="746" y="709"/>
      <point x="672" y="724"/>
      <point x="598" y="724" type="curve" smooth="yes"/>
      <point x="385" y="724"/>
      <point x="276" y="594"/>
      <point x="262" y="413" type="curve"/>
      <point x="118" y="413" type="line" smooth="yes"/>
      <point x="69" y="413"/>
      <point x="29" y="369"/>
      <point x="29" y="313" type="curve" smooth="yes"/>
      <point x="29" y="257"/>
      <point x="69" y="212"/>
      <point x="118" y="212" type="curve" smooth="yes"/>
      <point x="167" y="212"/>
      <point x="207" y="257"/>
      <point x="207" y="313" type="curve" smooth="yes"/>
      <point x="207" y="320"/>
      <point x="206" y="327"/>
      <point x="205" y="334" type="curve"/>
      <point x="260" y="334" type="line"/>
      <point x="271" y="122"/>
      <point x="384" y="-10"/>
    </contour>
  </outline>
</glyph>
<glyph name="uni2C27" format="2">
  <advance width="1030"/>
  <unicode hex="2C27"/>
  <outline>
    <contour>
      <point x="198" y="-10" type="curve" smooth="yes"/>
      <point x="380" y="-10"/>
      <point x="451" y="134"/>
      <point x="458" y="334" type="curve"/>
      <point x="571" y="334" type="line"/>
      <point x="579" y="134"/>
      <point x="650" y="-10"/>
      <point x="833" y="-10" type="curve" smooth="yes"/>
      <point x="892" y="-10"/>
      <point x="938" y="0"/>
      <point x="979" y="13" type="curve"/>
      <point x="979" y="93" type="line"/>
      <point x="938" y="81"/>
      <point x="892" y="69"/>
      <point x="847" y="69" type="curve" smooth="yes"/>
      <point x="728" y="69"/>
      <point x="666" y="163"/>
      <point x="666" y="334" type="curve"/>
      <point x="891" y="334" type="line"/>
      <point x="891" y="413" type="line"/>
      <point x="667" y="413" type="line"/>
      <point x="670" y="559"/>
      <point x="735" y="645"/>
      <point x="825" y="645" type="curve" smooth="yes"/>
      <point x="875" y="645"/>
      <point x="914" y="633"/>
      <point x="947" y="610" type="curve"/>
      <point x="981" y="684" type="line"/>
      <point x="936" y="711"/>
      <point x="893" y="724"/>
      <point x="824" y="724" type="curve" smooth="yes"/>
      <point x="649" y="724"/>
      <point x="582" y="580"/>
      <point x="572" y="413" type="curve"/>
      <point x="458" y="413" type="line"/>
      <point x="448" y="580"/>
      <point x="381" y="724"/>
      <point x="207" y="724" type="curve" smooth="yes"/>
      <point x="137" y="724"/>
      <point x="94" y="711"/>
      <point x="49" y="684" type="curve"/>
      <point x="83" y="610" type="line"/>
      <point x="116" y="633"/>
      <point x="155" y="645"/>
      <point x="206" y="645" type="curve" smooth="yes"/>
      <point x="295" y="645"/>
      <point x="360" y="559"/>
      <point x="364" y="413" type="curve"/>
      <point x="140" y="413" type="line"/>
      <point x="140" y="334" type="line"/>
      <point x="365" y="334" type="line"/>
      <point x="365" y="163"/>
      <point x="302" y="69"/>
      <point x="184" y="69" type="curve" smooth="yes"/>
      <point x="138" y="69"/>
      <point x="92" y="81"/>
      <point x="52" y="93" type="curve"/>
      <point x="52" y="13" type="line"/>
      <point x="92" y="0"/>
      <point x="138" y="-10"/>
    </contour>
  </outline>
</glyph>
<glyph name="uni2C29" format="2">
  <advance width="1304"/>
  <unicode hex="2C29"/>
  <outline>
    <contour>
      <point x="1106" y="-10" type="curve" smooth="yes"/>
      <point x="1166" y="-10"/>
      <point x="1211" y="0"/>
      <point x="1252" y="13" type="curve"/>
      <point x="1252" y="93" type="line"/>
      <point x="1211" y="81"/>
      <point x="1166" y="69"/>
      <point x="1120" y="69" type="curve" smooth="yes"/>
      <point x="1001" y="69"/>
      <point x="939" y="163"/>
      <point x="939" y="334" type="curve"/>
      <point x="1164" y="334" type="line"/>
      <point x="1164" y="413" type="line"/>
      <point x="940" y="413" type="line"/>
      <point x="943" y="559"/>
      <point x="1009" y="645"/>
      <point x="1098" y="645" type="curve" smooth="yes"/>
      <point x="1148" y="645"/>
      <point x="1188" y="633"/>
      <point x="1221" y="610" type="curve"/>
      <point x="1255" y="684" type="line"/>
      <point x="1209" y="711"/>
      <point x="1167" y="724"/>
      <point x="1097" y="724" type="curve" smooth="yes"/>
      <point x="922" y="724"/>
      <point x="855" y="580"/>
      <point x="845" y="413" type="curve"/>
      <point x="770" y="413" type="line"/>
      <point x="612" y="714" type="line"/>
      <point x="248" y="714" type="line"/>
      <point x="49" y="334" type="line"/>
      <point x="292" y="334" type="line"/>
      <point x="256" y="291"/>
      <point x="248" y="228"/>
      <point x="248" y="169" type="curve" smooth="yes"/>
      <point x="248" y="0" type="line"/>
      <point x="613" y="0" type="line"/>
      <point x="613" y="169" type="line" smooth="yes"/>
      <point x="613" y="233"/>
      <point x="601" y="293"/>
      <point x="567" y="334" type="curve"/>
      <point x="845" y="334" type="line"/>
      <point x="852" y="134"/>
      <point x="923" y="-10"/>
    </contour>
    <contour>
      <point x="337" y="79" type="line"/>
      <point x="337" y="169" type="line" smooth="yes"/>
      <point x="337" y="267"/>
      <point x="350" y="310"/>
      <point x="430" y="310" type="curve" smooth="yes"/>
      <point x="511" y="310"/>
      <point x="523" y="266"/>
      <point x="523" y="169" type="curve" smooth="yes"/>
      <point x="523" y="79" type="line"/>
    </contour>
    <contour>
      <point x="177" y="413" type="line"/>
      <point x="295" y="635" type="line"/>
      <point x="385" y="635" type="line"/>
      <point x="385" y="413" type="line"/>
    </contour>
    <contour>
      <point x="475" y="413" type="line"/>
      <point x="475" y="635" type="line"/>
      <point x="564" y="635" type="line"/>
      <point x="683" y="413" type="line"/>
    </contour>
  </outline>
</glyph>
<glyph name="uni2C2A" format="2">
  <advance width="927"/>
  <unicode hex="2C2A"/>
  <outline>
    <contour>
      <point x="469" y="-10" type="curve" smooth="yes"/>
      <point x="628" y="-10"/>
      <point x="709" y="126"/>
      <point x="714" y="334" type="curve"/>
      <point x="729" y="334" type="line" smooth="yes"/>
      <point x="769" y="334"/>
      <point x="778" y="324"/>
      <point x="778" y="285" type="curve" smooth="yes"/>
      <point x="778" y="266" type="line"/>
      <point x="858" y="266" type="line"/>
      <point x="858" y="306" type="line" smooth="yes"/>
      <point x="858" y="384"/>
      <point x="839" y="413"/>
      <point x="761" y="413" type="curve" smooth="yes"/>
      <point x="713" y="413" type="line"/>
      <point x="700" y="604"/>
      <point x="621" y="725"/>
      <point x="470" y="725" type="curve" smooth="yes"/>
      <point x="309" y="725"/>
      <point x="235" y="602"/>
      <point x="223" y="413" type="curve"/>
      <point x="166" y="413" type="line" smooth="yes"/>
      <point x="88" y="413"/>
      <point x="68" y="384"/>
      <point x="68" y="306" type="curve" smooth="yes"/>
      <point x="68" y="266" type="line"/>
      <point x="158" y="266" type="line"/>
      <point x="158" y="285" type="line" smooth="yes"/>
      <point x="158" y="324"/>
      <point x="168" y="334"/>
      <point x="207" y="334" type="curve" smooth="yes"/>
      <point x="222" y="334" type="line"/>
      <point x="228" y="127"/>
      <point x="301" y="-10"/>
    </contour>
    <contour>
      <point x="469" y="68" type="curve" smooth="yes"/>
      <point x="361" y="68"/>
      <point x="316" y="168"/>
      <point x="313" y="334" type="curve"/>
      <point x="624" y="334" type="line"/>
      <point x="620" y="168"/>
      <point x="577" y="68"/>
    </contour>
    <contour>
      <point x="314" y="413" type="line"/>
      <point x="323" y="560"/>
      <point x="369" y="646"/>
      <point x="470" y="646" type="curve" smooth="yes"/>
      <point x="570" y="646"/>
      <point x="614" y="560"/>
      <point x="623" y="413" type="curve"/>
    </contour>
  </outline>
</glyph>
<glyph name="uni2C2B" format="2">
  <advance width="601"/>
  <unicode hex="2C2B"/>
  <outline>
    <contour>
      <point x="78" y="0" type="line"/>
      <point x="434" y="0" type="line"/>
      <point x="434" y="114" type="line" smooth="yes"/>
      <point x="434" y="158"/>
      <point x="421" y="198"/>
      <point x="376" y="241" type="curve"/>
      <point x="408" y="267"/>
      <point x="425" y="302"/>
      <point x="430" y="334" type="curve"/>
      <point x="562" y="334" type="line"/>
      <point x="562" y="413" type="line"/>
      <point x="419" y="413" type="line"/>
      <point x="410" y="434"/>
      <point x="396" y="455"/>
      <point x="375" y="472" type="curve"/>
      <point x="418" y="510"/>
      <point x="434" y="555"/>
      <point x="434" y="600" type="curve" smooth="yes"/>
      <point x="434" y="714" type="line"/>
      <point x="78" y="714" type="line"/>
      <point x="78" y="600" type="line" smooth="yes"/>
      <point x="78" y="551"/>
      <point x="90" y="508"/>
      <point x="131" y="472" type="curve"/>
      <point x="94" y="441"/>
      <point x="79" y="397"/>
      <point x="79" y="357" type="curve" smooth="yes"/>
      <point x="79" y="316"/>
      <point x="94" y="272"/>
      <point x="131" y="242" type="curve"/>
      <point x="90" y="206"/>
      <point x="78" y="163"/>
      <point x="78" y="114" type="curve" smooth="yes"/>
    </contour>
    <contour>
      <point x="168" y="79" type="line"/>
      <point x="168" y="114" type="line" smooth="yes"/>
      <point x="168" y="147"/>
      <point x="180" y="204"/>
      <point x="256" y="204" type="curve" smooth="yes"/>
      <point x="331" y="204"/>
      <point x="344" y="148"/>
      <point x="344" y="114" type="curve" smooth="yes"/>
      <point x="344" y="79" type="line"/>
    </contour>
    <contour>
      <point x="256" y="283" type="curve" smooth="yes"/>
      <point x="188" y="283"/>
      <point x="169" y="328"/>
      <point x="169" y="357" type="curve" smooth="yes"/>
      <point x="169" y="386"/>
      <point x="188" y="431"/>
      <point x="256" y="431" type="curve" smooth="yes"/>
      <point x="322" y="431"/>
      <point x="343" y="386"/>
      <point x="343" y="357" type="curve" smooth="yes"/>
      <point x="343" y="327"/>
      <point x="322" y="283"/>
    </contour>
    <contour>
      <point x="256" y="510" type="curve" smooth="yes"/>
      <point x="180" y="510"/>
      <point x="168" y="566"/>
      <point x="168" y="600" type="curve" smooth="yes"/>
      <point x="168" y="635" type="line"/>
      <point x="344" y="635" type="line"/>
      <point x="344" y="600" type="line" smooth="yes"/>
      <point x="344" y="565"/>
      <point x="331" y="510"/>
    </contour>
  </outline>
</glyph>
<glyph name="uni2C2C" format="2">
  <advance width="388"/>
  <unicode hex="2C2C"/>
  <outline>
    <contour>
      <point x="181" y="0" type="line"/>
      <point x="271" y="0" type="line"/>
      <point x="271" y="714" type="line"/>
      <point x="49" y="714" type="line"/>
      <point x="49" y="635" type="line"/>
      <point x="181" y="635" type="line"/>
    </contour>
  </outline>
</glyph>
<glyph name="uni2C2D" format="2">
  <advance width="792"/>
  <unicode hex="2C2D"/>
  <outline>
    <contour>
      <point x="585" y="0" type="line"/>
      <point x="675" y="0" type="line"/>
      <point x="675" y="714" type="line"/>
      <point x="585" y="714" type="line"/>
      <point x="585" y="419" type="line"/>
      <point x="78" y="675" type="line"/>
      <point x="78" y="41" type="line"/>
      <point x="585" y="292" type="line"/>
    </contour>
    <contour>
      <point x="163" y="171" type="line"/>
      <point x="163" y="315" type="line"/>
      <point x="469" y="315" type="line"/>
    </contour>
    <contour>
      <point x="163" y="395" type="line"/>
      <point x="163" y="544" type="line"/>
      <point x="469" y="395" type="line"/>
    </contour>
  </outline>
</glyph>
<glyph name="uni2C30" format="2">
  <advance width="707"/>
  <unicode hex="2C30"/>
  <outline>
    <contour>
      <point x="68" y="0" type="line"/>
      <point x="154" y="0" type="line"/>
      <point x="154" y="203" type="line" smooth="yes"/>
      <point x="154" y="232"/>
      <point x="159" y="242"/>
      <point x="188" y="242" type="curve" smooth="yes"/>
      <point x="311" y="242" type="line"/>
      <point x="311" y="0" type="line"/>
      <point x="396" y="0" type="line"/>
      <point x="396" y="242" type="line"/>
      <point x="519" y="242" type="line" smooth="yes"/>
      <point x="548" y="242"/>
      <point x="553" y="232"/>
      <point x="553" y="203" type="curve" smooth="yes"/>
      <point x="553" y="0" type="line"/>
      <point x="639" y="0" type="line"/>
      <point x="639" y="225" type="line" smooth="yes"/>
      <point x="639" y="283"/>
      <point x="635" y="313"/>
      <point x="571" y="313" type="curve" smooth="yes"/>
      <point x="396" y="313" type="line"/>
      <point x="396" y="536" type="line"/>
      <point x="311" y="536" type="line"/>
      <point x="311" y="313" type="line"/>
      <point x="136" y="313" type="line" smooth="yes"/>
      <point x="72" y="313"/>
      <point x="68" y="283"/>
      <point x="68" y="225" type="curve" smooth="yes"/>
    </contour>
  </outline>
</glyph>
<glyph name="uni2C33" format="2">
  <advance width="798"/>
  <unicode hex="2C33"/>
  <outline>
    <contour>
      <point x="156" y="0" type="line"/>
      <point x="237" y="0" type="line"/>
      <point x="312" y="194" type="line"/>
      <point x="417" y="194" type="line"/>
      <point x="417" y="88" type="line" smooth="yes"/>
      <point x="417" y="24"/>
      <point x="425" y="0"/>
      <point x="484" y="0" type="curve" smooth="yes"/>
      <point x="730" y="0" type="line"/>
      <point x="730" y="225" type="line" smooth="yes"/>
      <point x="730" y="288"/>
      <point x="721" y="313"/>
      <point x="663" y="313" type="curve" smooth="yes"/>
      <point x="484" y="313" type="line" smooth="yes"/>
      <point x="439" y="313"/>
      <point x="424" y="298"/>
      <point x="418" y="265" type="curve"/>
      <point x="339" y="265" type="line"/>
      <point x="443" y="536" type="line"/>
      <point x="109" y="536" type="line" smooth="yes"/>
      <point x="89" y="536"/>
      <point x="68" y="527"/>
      <point x="68" y="500" type="curve" smooth="yes"/>
      <point x="68" y="427" type="line" smooth="yes"/>
      <point x="68" y="325"/>
      <point x="125" y="233"/>
      <point x="234" y="203" type="curve"/>
    </contour>
    <contour>
      <point x="261" y="272" type="line"/>
      <point x="180" y="292"/>
      <point x="154" y="351"/>
      <point x="154" y="424" type="curve" smooth="yes"/>
      <point x="154" y="457"/>
      <point x="158" y="465"/>
      <point x="184" y="465" type="curve" smooth="yes"/>
      <point x="335" y="465" type="line"/>
    </contour>
    <contour>
      <point x="537" y="71" type="line" smooth="yes"/>
      <point x="512" y="71"/>
      <point x="502" y="76"/>
      <point x="502" y="110" type="curve" smooth="yes"/>
      <point x="502" y="203" type="line" smooth="yes"/>
      <point x="502" y="237"/>
      <point x="512" y="242"/>
      <point x="537" y="242" type="curve" smooth="yes"/>
      <point x="610" y="242" type="line" smooth="yes"/>
      <point x="634" y="242"/>
      <point x="644" y="237"/>
      <point x="644" y="203" type="curve" smooth="yes"/>
      <point x="644" y="71" type="line"/>
    </contour>
  </outline>
</glyph>
<glyph name="uni2C34" format="2">
  <advance width="896"/>
  <unicode hex="2C34"/>
  <outline>
    <contour>
      <point x="186" y="0" type="curve" smooth="yes"/>
      <point x="309" y="0" type="line" smooth="yes"/>
      <point x="387" y="0"/>
      <point x="406" y="24"/>
      <point x="406" y="98" type="curve" smooth="yes"/>
      <point x="406" y="465" type="line"/>
      <point x="479" y="465" type="line" smooth="yes"/>
      <point x="504" y="465"/>
      <point x="514" y="460"/>
      <point x="514" y="426" type="curve" smooth="yes"/>
      <point x="514" y="88" type="line" smooth="yes"/>
      <point x="514" y="24"/>
      <point x="522" y="0"/>
      <point x="581" y="0" type="curve" smooth="yes"/>
      <point x="760" y="0" type="line" smooth="yes"/>
      <point x="818" y="0"/>
      <point x="827" y="24"/>
      <point x="827" y="88" type="curve" smooth="yes"/>
      <point x="827" y="244" type="line" smooth="yes"/>
      <point x="827" y="308"/>
      <point x="818" y="332"/>
      <point x="760" y="332" type="curve" smooth="yes"/>
      <point x="600" y="332" type="line"/>
      <point x="600" y="448" type="line" smooth="yes"/>
      <point x="600" y="512"/>
      <point x="591" y="536"/>
      <point x="532" y="536" type="curve" smooth="yes"/>
      <point x="186" y="536" type="line" smooth="yes"/>
      <point x="107" y="536"/>
      <point x="88" y="512"/>
      <point x="88" y="438" type="curve" smooth="yes"/>
      <point x="88" y="98" type="line" smooth="yes"/>
      <point x="88" y="26"/>
      <point x="107" y="0"/>
    </contour>
    <contour>
      <point x="223" y="71" type="line" smooth="yes"/>
      <point x="184" y="71"/>
      <point x="174" y="81"/>
      <point x="174" y="120" type="curve" smooth="yes"/>
      <point x="174" y="417" type="line" smooth="yes"/>
      <point x="174" y="456"/>
      <point x="184" y="465"/>
      <point x="223" y="465" type="curve" smooth="yes"/>
      <point x="320" y="465" type="line"/>
      <point x="320" y="120" type="line" smooth="yes"/>
      <point x="320" y="81"/>
      <point x="311" y="71"/>
      <point x="271" y="71" type="curve" smooth="yes"/>
    </contour>
    <contour>
      <point x="634" y="71" type="line" smooth="yes"/>
      <point x="609" y="71"/>
      <point x="600" y="76"/>
      <point x="600" y="110" type="curve" smooth="yes"/>
      <point x="600" y="261" type="line"/>
      <point x="707" y="261" type="line" smooth="yes"/>
      <point x="731" y="261"/>
      <point x="741" y="256"/>
      <point x="741" y="222" type="curve" smooth="yes"/>
      <point x="741" y="110" type="line" smooth="yes"/>
      <point x="741" y="76"/>
      <point x="731" y="71"/>
      <point x="707" y="71" type="curve" smooth="yes"/>
    </contour>
  </outline>
</glyph>
<glyph name="uni2C35" format="2">
  <advance width="508"/>
  <unicode hex="2C35"/>
  <outline>
    <contour>
      <point x="181" y="-10" type="curve" smooth="yes"/>
      <point x="337" y="-10"/>
      <point x="449" y="77"/>
      <point x="449" y="268" type="curve" smooth="yes"/>
      <point x="449" y="467"/>
      <point x="344" y="546"/>
      <point x="194" y="546" type="curve" smooth="yes"/>
      <point x="140" y="546"/>
      <point x="83" y="532"/>
      <point x="45" y="515" type="curve"/>
      <point x="70" y="444" type="line"/>
      <point x="106" y="457"/>
      <point x="156" y="470"/>
      <point x="195" y="470" type="curve" smooth="yes"/>
      <point x="296" y="470"/>
      <point x="348" y="421"/>
      <point x="357" y="313" type="curve"/>
      <point x="94" y="313" type="line"/>
      <point x="94" y="241" type="line"/>
      <point x="358" y="241" type="line"/>
      <point x="351" y="120"/>
      <point x="287" y="65"/>
      <point x="183" y="65" type="curve" smooth="yes"/>
      <point x="124" y="65"/>
      <point x="79" y="79"/>
      <point x="39" y="95" type="curve"/>
      <point x="39" y="19" type="line"/>
      <point x="78" y="0"/>
      <point x="120" y="-10"/>
    </contour>
  </outline>
</glyph>
<glyph name="uni2C37" format="2">
  <advance width="688"/>
  <unicode hex="2C37"/>
  <outline>
    <contour>
      <point x="136" y="0" type="curve" smooth="yes"/>
      <point x="542" y="0" type="line"/>
      <point x="601" y="0"/>
      <point x="609" y="24"/>
      <point x="609" y="88" type="curve" smooth="yes"/>
      <point x="609" y="225" type="line" smooth="yes"/>
      <point x="609" y="285"/>
      <point x="602" y="310"/>
      <point x="551" y="312" type="curve"/>
      <point x="588" y="348"/>
      <point x="609" y="397"/>
      <point x="609" y="456" type="curve" smooth="yes"/>
      <point x="609" y="490" type="line" smooth="yes"/>
      <point x="609" y="521"/>
      <point x="585" y="536"/>
      <point x="558" y="536" type="curve" smooth="yes"/>
      <point x="355" y="536" type="line" smooth="yes"/>
      <point x="309" y="536"/>
      <point x="296" y="512"/>
      <point x="296" y="468" type="curve" smooth="yes"/>
      <point x="296" y="313" type="line"/>
      <point x="136" y="313" type="line" smooth="yes"/>
      <point x="77" y="313"/>
      <point x="68" y="288"/>
      <point x="68" y="225" type="curve" smooth="yes"/>
      <point x="68" y="88" type="line" smooth="yes"/>
      <point x="68" y="24"/>
      <point x="77" y="0"/>
    </contour>
    <contour>
      <point x="188" y="71" type="line" smooth="yes"/>
      <point x="164" y="71"/>
      <point x="154" y="76"/>
      <point x="154" y="110" type="curve" smooth="yes"/>
      <point x="154" y="203" type="line" smooth="yes"/>
      <point x="154" y="237"/>
      <point x="164" y="242"/>
      <point x="188" y="242" type="curve" smooth="yes"/>
      <point x="296" y="242" type="line"/>
      <point x="296" y="71" type="line"/>
    </contour>
    <contour>
      <point x="382" y="71" type="line"/>
      <point x="382" y="242" type="line"/>
      <point x="489" y="242" type="line" smooth="yes"/>
      <point x="514" y="242"/>
      <point x="523" y="237"/>
      <point x="523" y="203" type="curve" smooth="yes"/>
      <point x="523" y="110" type="line" smooth="yes"/>
      <point x="523" y="76"/>
      <point x="514" y="71"/>
      <point x="489" y="71" type="curve" smooth="yes"/>
    </contour>
    <contour>
      <point x="382" y="313" type="line"/>
      <point x="382" y="429" type="line" smooth="yes"/>
      <point x="382" y="453"/>
      <point x="383" y="465"/>
      <point x="406" y="465" type="curve" smooth="yes"/>
      <point x="501" y="465" type="line" smooth="yes"/>
      <point x="525" y="465"/>
      <point x="526" y="450"/>
      <point x="526" y="424" type="curve" smooth="yes"/>
      <point x="526" y="380"/>
      <point x="494" y="313"/>
      <point x="389" y="313" type="curve" smooth="yes"/>
    </contour>
  </outline>
</glyph>
<glyph name="uni2C3A" format="2">
  <advance width="914"/>
  <unicode hex="2C3A"/>
  <outline>
    <contour>
      <point x="299" y="0" type="line"/>
      <point x="615" y="0" type="line"/>
      <point x="615" y="124" type="line" smooth="yes"/>
      <point x="615" y="177"/>
      <point x="598" y="231"/>
      <point x="559" y="266" type="curve"/>
      <point x="563" y="270"/>
      <point x="568" y="275"/>
      <point x="572" y="280" type="curve"/>
      <point x="598" y="250"/>
      <point x="635" y="229"/>
      <point x="687" y="229" type="curve" smooth="yes"/>
      <point x="798" y="229"/>
      <point x="846" y="300"/>
      <point x="846" y="411" type="curve" smooth="yes"/>
      <point x="846" y="536" type="line"/>
      <point x="68" y="536" type="line"/>
      <point x="68" y="411" type="line" smooth="yes"/>
      <point x="68" y="300"/>
      <point x="116" y="229"/>
      <point x="227" y="229" type="curve" smooth="yes"/>
      <point x="277" y="229"/>
      <point x="314" y="248"/>
      <point x="339" y="277" type="curve"/>
      <point x="350" y="266" type="line"/>
      <point x="311" y="231"/>
      <point x="299" y="177"/>
      <point x="299" y="125" type="curve" smooth="yes"/>
    </contour>
    <contour>
      <point x="385" y="71" type="line"/>
      <point x="385" y="125" type="line" smooth="yes"/>
      <point x="385" y="186"/>
      <point x="395" y="229"/>
      <point x="458" y="229" type="curve" smooth="yes"/>
      <point x="521" y="229"/>
      <point x="529" y="193"/>
      <point x="529" y="125" type="curve" smooth="yes"/>
      <point x="529" y="71" type="line"/>
    </contour>
    <contour>
      <point x="227" y="301" type="curve" smooth="yes"/>
      <point x="164" y="301"/>
      <point x="154" y="345"/>
      <point x="154" y="412" type="curve" smooth="yes"/>
      <point x="154" y="465" type="line"/>
      <point x="299" y="465" type="line"/>
      <point x="299" y="411" type="line" smooth="yes"/>
      <point x="299" y="338"/>
      <point x="291" y="301"/>
    </contour>
    <contour>
      <point x="458" y="301" type="curve" smooth="yes"/>
      <point x="396" y="301"/>
      <point x="385" y="342"/>
      <point x="385" y="406" type="curve" smooth="yes"/>
      <point x="385" y="465" type="line"/>
      <point x="529" y="465" type="line"/>
      <point x="529" y="411" type="line" smooth="yes"/>
      <point x="529" y="338"/>
      <point x="521" y="301"/>
    </contour>
    <contour>
      <point x="687" y="301" type="curve" smooth="yes"/>
      <point x="625" y="301"/>
      <point x="615" y="336"/>
      <point x="615" y="406" type="curve" smooth="yes"/>
      <point x="615" y="465" type="line"/>
      <point x="760" y="465" type="line"/>
      <point x="760" y="412" type="line" smooth="yes"/>
      <point x="760" y="345"/>
      <point x="750" y="301"/>
    </contour>
  </outline>
</glyph>
<glyph name="uni2C3B" format="2">
  <advance width="473"/>
  <unicode hex="2C3B"/>
  <outline>
    <contour>
      <point x="78" y="0" type="line"/>
      <point x="395" y="0" type="line"/>
      <point x="395" y="134" type="line" smooth="yes"/>
      <point x="395" y="187"/>
      <point x="377" y="241"/>
      <point x="338" y="275" type="curve"/>
      <point x="377" y="312"/>
      <point x="395" y="369"/>
      <point x="395" y="422" type="curve" smooth="yes"/>
      <point x="395" y="536" type="line"/>
      <point x="78" y="536" type="line"/>
      <point x="78" y="421" type="line" smooth="yes"/>
      <point x="78" y="369"/>
      <point x="90" y="312"/>
      <point x="129" y="275" type="curve"/>
      <point x="90" y="241"/>
      <point x="78" y="187"/>
      <point x="78" y="135" type="curve" smooth="yes"/>
    </contour>
    <contour>
      <point x="164" y="71" type="line"/>
      <point x="164" y="134" type="line" smooth="yes"/>
      <point x="164" y="196"/>
      <point x="174" y="239"/>
      <point x="237" y="239" type="curve" smooth="yes"/>
      <point x="300" y="239"/>
      <point x="309" y="203"/>
      <point x="309" y="135" type="curve" smooth="yes"/>
      <point x="309" y="71" type="line"/>
    </contour>
    <contour>
      <point x="237" y="311" type="curve" smooth="yes"/>
      <point x="174" y="311"/>
      <point x="164" y="355"/>
      <point x="164" y="421" type="curve" smooth="yes"/>
      <point x="164" y="465" type="line"/>
      <point x="309" y="465" type="line"/>
      <point x="309" y="421" type="line" smooth="yes"/>
      <point x="309" y="348"/>
      <point x="300" y="311"/>
    </contour>
  </outline>
</glyph>
<glyph name="uni2C3E" format="2">
  <advance width="871"/>
  <unicode hex="2C3E"/>
  <outline>
    <contour>
      <point x="136" y="0" type="curve" smooth="yes"/>
      <point x="314" y="0" type="line" smooth="yes"/>
      <point x="373" y="0"/>
      <point x="382" y="24"/>
      <point x="382" y="88" type="curve" smooth="yes"/>
      <point x="382" y="242" type="line"/>
      <point x="489" y="242" type="line"/>
      <point x="489" y="88" type="line" smooth="yes"/>
      <point x="489" y="24"/>
      <point x="498" y="0"/>
      <point x="557" y="0" type="curve" smooth="yes"/>
      <point x="735" y="0" type="line" smooth="yes"/>
      <point x="794" y="0"/>
      <point x="803" y="24"/>
      <point x="803" y="88" type="curve" smooth="yes"/>
      <point x="803" y="225" type="line" smooth="yes"/>
      <point x="803" y="288"/>
      <point x="794" y="313"/>
      <point x="735" y="313" type="curve" smooth="yes"/>
      <point x="575" y="313" type="line"/>
      <point x="575" y="453" type="line" smooth="yes"/>
      <point x="575" y="526"/>
      <point x="570" y="536"/>
      <point x="502" y="536" type="curve" smooth="yes"/>
      <point x="369" y="536" type="line" smooth="yes"/>
      <point x="301" y="536"/>
      <point x="296" y="525"/>
      <point x="296" y="453" type="curve" smooth="yes"/>
      <point x="296" y="313" type="line"/>
      <point x="136" y="313" type="line" smooth="yes"/>
      <point x="77" y="313"/>
      <point x="68" y="288"/>
      <point x="68" y="225" type="curve" smooth="yes"/>
      <point x="68" y="88" type="line" smooth="yes"/>
      <point x="68" y="24"/>
      <point x="77" y="0"/>
    </contour>
    <contour>
      <point x="188" y="71" type="line" smooth="yes"/>
      <point x="164" y="71"/>
      <point x="154" y="76"/>
      <point x="154" y="110" type="curve" smooth="yes"/>
      <point x="154" y="203" type="line" smooth="yes"/>
      <point x="154" y="237"/>
      <point x="164" y="242"/>
      <point x="188" y="242" type="curve" smooth="yes"/>
      <point x="296" y="242" type="line"/>
      <point x="296" y="110" type="line" smooth="yes"/>
      <point x="296" y="76"/>
      <point x="286" y="71"/>
      <point x="262" y="71" type="curve" smooth="yes"/>
    </contour>
    <contour>
      <point x="609" y="71" type="line" smooth="yes"/>
      <point x="585" y="71"/>
      <point x="575" y="76"/>
      <point x="575" y="110" type="curve" smooth="yes"/>
      <point x="575" y="242" type="line"/>
      <point x="683" y="242" type="line" smooth="yes"/>
      <point x="707" y="242"/>
      <point x="717" y="237"/>
      <point x="717" y="203" type="curve" smooth="yes"/>
      <point x="717" y="110" type="line" smooth="yes"/>
      <point x="717" y="76"/>
      <point x="707" y="71"/>
      <point x="683" y="71" type="curve" smooth="yes"/>
    </contour>
    <contour>
      <point x="382" y="313" type="line"/>
      <point x="382" y="417" type="line" smooth="yes"/>
      <point x="382" y="456"/>
      <point x="382" y="465"/>
      <point x="411" y="465" type="curve" smooth="yes"/>
      <point x="460" y="465" type="line" smooth="yes"/>
      <point x="489" y="465"/>
      <point x="489" y="456"/>
      <point x="489" y="417" type="curve" smooth="yes"/>
      <point x="489" y="313" type="line"/>
    </contour>
  </outline>
</glyph>
<glyph name="uni2C3F" format="2">
  <advance width="723"/>
  <unicode hex="2C3F"/>
  <outline>
    <contour>
      <point x="88" y="0" type="line"/>
      <point x="174" y="0" type="line"/>
      <point x="174" y="370" type="line" smooth="yes"/>
      <point x="174" y="431"/>
      <point x="184" y="474"/>
      <point x="247" y="474" type="curve" smooth="yes"/>
      <point x="308" y="474"/>
      <point x="318" y="440"/>
      <point x="318" y="369" type="curve" smooth="yes"/>
      <point x="318" y="0" type="line"/>
      <point x="404" y="0" type="line"/>
      <point x="404" y="370" type="line" smooth="yes"/>
      <point x="404" y="438"/>
      <point x="413" y="474"/>
      <point x="476" y="474" type="curve" smooth="yes"/>
      <point x="539" y="474"/>
      <point x="549" y="431"/>
      <point x="549" y="370" type="curve" smooth="yes"/>
      <point x="549" y="0" type="line"/>
      <point x="635" y="0" type="line"/>
      <point x="635" y="370" type="line" smooth="yes"/>
      <point x="635" y="455"/>
      <point x="602" y="546"/>
      <point x="476" y="546" type="curve" smooth="yes"/>
      <point x="424" y="546"/>
      <point x="387" y="526"/>
      <point x="361" y="498" type="curve"/>
      <point x="336" y="526"/>
      <point x="298" y="546"/>
      <point x="247" y="546" type="curve" smooth="yes"/>
      <point x="121" y="546"/>
      <point x="88" y="455"/>
      <point x="88" y="370" type="curve" smooth="yes"/>
    </contour>
  </outline>
</glyph>
<glyph name="uni2C40" format="2">
  <advance width="493"/>
  <unicode hex="2C40"/>
  <outline>
    <contour>
      <point x="88" y="0" type="line"/>
      <point x="174" y="0" type="line"/>
      <point x="174" y="221" type="line"/>
      <point x="344" y="229"/>
      <point x="425" y="306"/>
      <point x="425" y="427" type="curve" smooth="yes"/>
      <point x="425" y="490" type="line" smooth="yes"/>
      <point x="425" y="521"/>
      <point x="406" y="536"/>
      <point x="379" y="536" type="curve" smooth="yes"/>
      <point x="167" y="536" type="line" smooth="yes"/>
      <point x="106" y="536"/>
      <point x="88" y="507"/>
      <point x="88" y="453" type="curve" smooth="yes"/>
    </contour>
    <contour>
      <point x="174" y="292" type="curve"/>
      <point x="174" y="429" type="line" smooth="yes"/>
      <point x="174" y="453"/>
      <point x="183" y="465"/>
      <point x="206" y="465" type="curve" smooth="yes"/>
      <point x="314" y="465" type="line" smooth="yes"/>
      <point x="334" y="465"/>
      <point x="339" y="450"/>
      <point x="339" y="424" type="curve" smooth="yes"/>
      <point x="339" y="364"/>
      <point x="313" y="296"/>
    </contour>
  </outline>
</glyph>
<glyph name="uni2C41" format="2">
  <advance width="506"/>
  <unicode hex="2C41"/>
  <outline>
    <contour>
      <point x="175" y="0" type="curve" smooth="yes"/>
      <point x="330" y="0" type="line"/>
      <point x="404" y="0"/>
      <point x="418" y="10"/>
      <point x="418" y="72" type="curve" smooth="yes"/>
      <point x="418" y="464" type="line" smooth="yes"/>
      <point x="418" y="521"/>
      <point x="414" y="536"/>
      <point x="339" y="536" type="curve" smooth="yes"/>
      <point x="166" y="536" type="line" smooth="yes"/>
      <point x="91" y="536"/>
      <point x="78" y="478"/>
      <point x="78" y="432" type="curve" smooth="yes"/>
      <point x="78" y="360"/>
      <point x="124" y="306"/>
      <point x="196" y="275" type="curve"/>
      <point x="124" y="238"/>
      <point x="78" y="176"/>
      <point x="78" y="104" type="curve" smooth="yes"/>
      <point x="78" y="58"/>
      <point x="86" y="0"/>
    </contour>
    <contour>
      <point x="193" y="71" type="line" smooth="yes"/>
      <point x="166" y="71"/>
      <point x="163" y="91"/>
      <point x="163" y="116" type="curve" smooth="yes"/>
      <point x="163" y="180"/>
      <point x="223" y="235"/>
      <point x="332" y="243" type="curve"/>
      <point x="332" y="103" type="line" smooth="yes"/>
      <point x="332" y="83"/>
      <point x="328" y="71"/>
      <point x="308" y="71" type="curve" smooth="yes"/>
    </contour>
    <contour>
      <point x="332" y="313" type="line"/>
      <point x="219" y="318"/>
      <point x="163" y="356"/>
      <point x="163" y="420" type="curve" smooth="yes"/>
      <point x="163" y="446"/>
      <point x="163" y="465"/>
      <point x="205" y="465" type="curve" smooth="yes"/>
      <point x="304" y="465" type="line" smooth="yes"/>
      <point x="329" y="465"/>
      <point x="332" y="453"/>
      <point x="332" y="433" type="curve" smooth="yes"/>
    </contour>
  </outline>
</glyph>
<glyph name="uni2C44" format="2">
  <advance width="642"/>
  <unicode hex="2C44"/>
  <outline>
    <contour>
      <point x="163" y="0" type="line"/>
      <point x="479" y="0" type="line"/>
      <point x="479" y="157" type="line"/>
      <point x="550" y="199"/>
      <point x="583" y="272"/>
      <point x="583" y="338" type="curve" smooth="yes"/>
      <point x="583" y="433"/>
      <point x="514" y="546"/>
      <point x="321" y="546" type="curve" smooth="yes"/>
      <point x="128" y="546"/>
      <point x="59" y="433"/>
      <point x="59" y="338" type="curve" smooth="yes"/>
      <point x="59" y="272"/>
      <point x="92" y="199"/>
      <point x="163" y="157" type="curve"/>
    </contour>
    <contour>
      <point x="249" y="71" type="line"/>
      <point x="249" y="134" type="line" smooth="yes"/>
      <point x="249" y="196"/>
      <point x="258" y="250"/>
      <point x="321" y="250" type="curve" smooth="yes"/>
      <point x="385" y="250"/>
      <point x="393" y="203"/>
      <point x="393" y="135" type="curve" smooth="yes"/>
      <point x="393" y="71" type="line"/>
    </contour>
    <contour>
      <point x="458" y="239" type="curve"/>
      <point x="435" y="287"/>
      <point x="391" y="322"/>
      <point x="321" y="322" type="curve" smooth="yes"/>
      <point x="244" y="322"/>
      <point x="202" y="288"/>
      <point x="181" y="241" type="curve"/>
      <point x="157" y="266"/>
      <point x="145" y="298"/>
      <point x="145" y="339" type="curve" smooth="yes"/>
      <point x="145" y="433"/>
      <point x="221" y="474"/>
      <point x="321" y="474" type="curve" smooth="yes"/>
      <point x="418" y="474"/>
      <point x="497" y="433"/>
      <point x="497" y="339" type="curve" smooth="yes"/>
      <point x="497" y="297"/>
      <point x="483" y="264"/>
    </contour>
  </outline>
</glyph>
<glyph name="uni2C47" format="2">
  <advance width="743"/>
  <unicode hex="2C47"/>
  <outline>
    <contour>
      <point x="328" y="-167" type="line"/>
      <point x="414" y="-167" type="line"/>
      <point x="414" y="-8" type="line"/>
      <point x="579" y="6"/>
      <point x="679" y="106"/>
      <point x="679" y="268" type="curve" smooth="yes"/>
      <point x="679" y="430"/>
      <point x="573" y="529"/>
      <point x="414" y="544" type="curve"/>
      <point x="414" y="691" type="line"/>
      <point x="331" y="691" type="line"/>
      <point x="331" y="544" type="line"/>
      <point x="162" y="531"/>
      <point x="63" y="431"/>
      <point x="63" y="268" type="curve" smooth="yes"/>
      <point x="63" y="105"/>
      <point x="169" y="5"/>
      <point x="328" y="-8" type="curve"/>
    </contour>
    <contour>
      <point x="331" y="64" type="line"/>
      <point x="209" y="76"/>
      <point x="155" y="147"/>
      <point x="155" y="268" type="curve" smooth="yes"/>
      <point x="155" y="389"/>
      <point x="208" y="459"/>
      <point x="331" y="471" type="curve"/>
    </contour>
    <contour>
      <point x="414" y="64" type="curve"/>
      <point x="414" y="470" type="line"/>
      <point x="532" y="457"/>
      <point x="588" y="388"/>
      <point x="588" y="268" type="curve" smooth="yes"/>
      <point x="588" y="148"/>
      <point x="534" y="77"/>
    </contour>
  </outline>
</glyph>
<glyph name="uni2C49" format="2">
  <advance width="623"/>
  <unicode hex="2C49"/>
  <outline>
    <contour>
      <point x="267" y="-103" type="line"/>
      <point x="354" y="-103" type="line"/>
      <point x="354" y="-8" type="line"/>
      <point x="480" y="10"/>
      <point x="559" y="107"/>
      <point x="559" y="268" type="curve" smooth="yes"/>
      <point x="559" y="444"/>
      <point x="458" y="544"/>
      <point x="313" y="544" type="curve" smooth="yes"/>
      <point x="158" y="544"/>
      <point x="63" y="444"/>
      <point x="63" y="268" type="curve" smooth="yes"/>
      <point x="63" y="107"/>
      <point x="147" y="10"/>
      <point x="267" y="-8" type="curve"/>
    </contour>
    <contour>
      <point x="310" y="51" type="curve" smooth="yes"/>
      <point x="287" y="51"/>
      <point x="268" y="70"/>
      <point x="268" y="93" type="curve" smooth="yes"/>
      <point x="268" y="116"/>
      <point x="287" y="135"/>
      <point x="310" y="135" type="curve" smooth="yes"/>
      <point x="333" y="135"/>
      <point x="353" y="116"/>
      <point x="353" y="93" type="curve" smooth="yes"/>
      <point x="353" y="70"/>
      <point x="333" y="51"/>
    </contour>
    <contour>
      <point x="403" y="76" type="curve"/>
      <point x="404" y="81"/>
      <point x="405" y="87"/>
      <point x="405" y="93" type="curve" smooth="yes"/>
      <point x="405" y="146"/>
      <point x="363" y="188"/>
      <point x="310" y="188" type="curve" smooth="yes"/>
      <point x="258" y="188"/>
      <point x="215" y="146"/>
      <point x="215" y="93" type="curve" smooth="yes"/>
      <point x="215" y="88"/>
      <point x="216" y="83"/>
      <point x="216" y="78" type="curve"/>
      <point x="173" y="115"/>
      <point x="152" y="186"/>
      <point x="152" y="268" type="curve" smooth="yes"/>
      <point x="152" y="350"/>
      <point x="173" y="420"/>
      <point x="217" y="456" type="curve"/>
      <point x="216" y="450"/>
      <point x="215" y="444"/>
      <point x="215" y="438" type="curve" smooth="yes"/>
      <point x="215" y="386"/>
      <point x="258" y="344"/>
      <point x="310" y="344" type="curve" smooth="yes"/>
      <point x="363" y="344"/>
      <point x="405" y="386"/>
      <point x="405" y="438" type="curve" smooth="yes"/>
      <point x="405" y="445"/>
      <point x="404" y="451"/>
      <point x="403" y="457" type="curve"/>
      <point x="449" y="421"/>
      <point x="470" y="351"/>
      <point x="470" y="268" type="curve" smooth="yes"/>
      <point x="470" y="185"/>
      <point x="448" y="112"/>
    </contour>
    <contour>
      <point x="310" y="396" type="curve" smooth="yes"/>
      <point x="287" y="396"/>
      <point x="268" y="416"/>
      <point x="268" y="438" type="curve" smooth="yes"/>
      <point x="268" y="462"/>
      <point x="287" y="481"/>
      <point x="310" y="481" type="curve" smooth="yes"/>
      <point x="333" y="481"/>
      <point x="353" y="462"/>
      <point x="353" y="438" type="curve" smooth="yes"/>
      <point x="353" y="416"/>
      <point x="333" y="396"/>
    </contour>
  </outline>
</glyph>
<glyph name="uni2C4A" format="2">
  <advance width="702"/>
  <unicode hex="2C4A"/>
  <outline>
    <contour>
      <point x="136" y="0" type="curve" smooth="yes"/>
      <point x="314" y="0" type="line" smooth="yes"/>
      <point x="373" y="0"/>
      <point x="382" y="24"/>
      <point x="382" y="88" type="curve" smooth="yes"/>
      <point x="382" y="417" type="line" smooth="yes"/>
      <point x="382" y="456"/>
      <point x="382" y="465"/>
      <point x="421" y="465" type="curve" smooth="yes"/>
      <point x="489" y="465" type="line" smooth="yes"/>
      <point x="528" y="465"/>
      <point x="528" y="456"/>
      <point x="528" y="417" type="curve" smooth="yes"/>
      <point x="528" y="0" type="line"/>
      <point x="614" y="0" type="line"/>
      <point x="614" y="438" type="line" smooth="yes"/>
      <point x="614" y="512"/>
      <point x="609" y="536"/>
      <point x="531" y="536" type="curve" smooth="yes"/>
      <point x="379" y="536" type="line" smooth="yes"/>
      <point x="301" y="536"/>
      <point x="296" y="515"/>
      <point x="296" y="443" type="curve" smooth="yes"/>
      <point x="296" y="313" type="line"/>
      <point x="136" y="313" type="line" smooth="yes"/>
      <point x="77" y="313"/>
      <point x="68" y="288"/>
      <point x="68" y="225" type="curve" smooth="yes"/>
      <point x="68" y="88" type="line" smooth="yes"/>
      <point x="68" y="24"/>
      <point x="77" y="0"/>
    </contour>
    <contour>
      <point x="188" y="71" type="line" smooth="yes"/>
      <point x="164" y="71"/>
      <point x="154" y="76"/>
      <point x="154" y="110" type="curve" smooth="yes"/>
      <point x="154" y="203" type="line" smooth="yes"/>
      <point x="154" y="237"/>
      <point x="164" y="242"/>
      <point x="188" y="242" type="curve" smooth="yes"/>
      <point x="296" y="242" type="line"/>
      <point x="296" y="110" type="line" smooth="yes"/>
      <point x="296" y="76"/>
      <point x="286" y="71"/>
      <point x="262" y="71" type="curve" smooth="yes"/>
    </contour>
  </outline>
</glyph>
<glyph name="uni2C4E" format="2">
  <advance width="746"/>
  <unicode hex="2C4E"/>
  <outline>
    <contour>
      <point x="155" y="0" type="curve" smooth="yes"/>
      <point x="591" y="0" type="line" smooth="yes"/>
      <point x="654" y="0"/>
      <point x="658" y="29"/>
      <point x="658" y="88" type="curve" smooth="yes"/>
      <point x="658" y="536" type="line"/>
      <point x="572" y="536" type="line"/>
      <point x="572" y="110" type="line" smooth="yes"/>
      <point x="572" y="81"/>
      <point x="567" y="71"/>
      <point x="538" y="71" type="curve" smooth="yes"/>
      <point x="416" y="71" type="line"/>
      <point x="416" y="536" type="line"/>
      <point x="330" y="536" type="line"/>
      <point x="330" y="71" type="line"/>
      <point x="208" y="71" type="line" smooth="yes"/>
      <point x="179" y="71"/>
      <point x="174" y="81"/>
      <point x="174" y="110" type="curve" smooth="yes"/>
      <point x="174" y="536" type="line"/>
      <point x="88" y="536" type="line"/>
      <point x="88" y="88" type="line" smooth="yes"/>
      <point x="88" y="29"/>
      <point x="92" y="0"/>
    </contour>
  </outline>
</glyph>
<glyph name="uni2C50" format="2">
  <advance width="613"/>
  <unicode hex="2C50"/>
  <outline>
    <contour>
      <point x="218" y="0" type="line"/>
      <point x="535" y="0" type="line"/>
      <point x="535" y="129" type="line" smooth="yes"/>
      <point x="535" y="182"/>
      <point x="521" y="237"/>
      <point x="483" y="271" type="curve"/>
      <point x="521" y="306"/>
      <point x="535" y="361"/>
      <point x="535" y="414" type="curve" smooth="yes"/>
      <point x="535" y="536" type="line"/>
      <point x="218" y="536" type="line"/>
      <point x="218" y="413" type="line" smooth="yes"/>
      <point x="218" y="378"/>
      <point x="222" y="343"/>
      <point x="236" y="313" type="curve"/>
      <point x="106" y="313" type="line" smooth="yes"/>
      <point x="70" y="313"/>
      <point x="39" y="276"/>
      <point x="39" y="233" type="curve" smooth="yes"/>
      <point x="39" y="188"/>
      <point x="71" y="153"/>
      <point x="110" y="153" type="curve" smooth="yes"/>
      <point x="149" y="153"/>
      <point x="180" y="188"/>
      <point x="180" y="233" type="curve" smooth="yes"/>
      <point x="180" y="239"/>
      <point x="179" y="245"/>
      <point x="178" y="250" type="curve"/>
      <point x="247" y="250" type="line"/>
      <point x="224" y="217"/>
      <point x="218" y="172"/>
      <point x="218" y="130" type="curve" smooth="yes"/>
    </contour>
    <contour>
      <point x="304" y="71" type="line"/>
      <point x="304" y="125" type="line" smooth="yes"/>
      <point x="304" y="191"/>
      <point x="314" y="236"/>
      <point x="377" y="236" type="curve" smooth="yes"/>
      <point x="440" y="236"/>
      <point x="449" y="198"/>
      <point x="449" y="125" type="curve" smooth="yes"/>
      <point x="449" y="71" type="line"/>
    </contour>
    <contour>
      <point x="377" y="308" type="curve" smooth="yes"/>
      <point x="314" y="308"/>
      <point x="304" y="352"/>
      <point x="304" y="418" type="curve" smooth="yes"/>
      <point x="304" y="465" type="line"/>
      <point x="449" y="465" type="line"/>
      <point x="449" y="418" type="line" smooth="yes"/>
      <point x="449" y="345"/>
      <point x="440" y="308"/>
    </contour>
  </outline>
</glyph>
<glyph name="uni2C52" format="2">
  <advance width="604"/>
  <unicode hex="2C52"/>
  <outline>
    <contour>
      <point x="332" y="-29" type="line"/>
      <point x="400" y="-29" type="line"/>
      <point x="400" y="39" type="line"/>
      <point x="417" y="45"/>
      <point x="434" y="54"/>
      <point x="449" y="64" type="curve"/>
      <point x="449" y="-29" type="line"/>
      <point x="517" y="-29" type="line"/>
      <point x="517" y="147" type="line"/>
      <point x="532" y="180"/>
      <point x="541" y="219"/>
      <point x="541" y="264" type="curve" smooth="yes"/>
      <point x="541" y="413"/>
      <point x="442" y="505"/>
      <point x="303" y="505" type="curve" smooth="yes"/>
      <point x="290" y="505"/>
      <point x="278" y="504"/>
      <point x="266" y="503" type="curve"/>
      <point x="266" y="554" type="line"/>
      <point x="197" y="554" type="line"/>
      <point x="197" y="486" type="line"/>
      <point x="179" y="479"/>
      <point x="163" y="470"/>
      <point x="148" y="458" type="curve"/>
      <point x="148" y="554" type="line"/>
      <point x="80" y="554" type="line"/>
      <point x="80" y="364" type="line"/>
      <point x="69" y="334"/>
      <point x="63" y="301"/>
      <point x="63" y="264" type="curve" smooth="yes"/>
      <point x="63" y="114"/>
      <point x="164" y="22"/>
      <point x="300" y="22" type="curve" smooth="yes"/>
      <point x="311" y="22"/>
      <point x="321" y="22"/>
      <point x="332" y="23" type="curve"/>
    </contour>
    <contour>
      <point x="302" y="94" type="curve" smooth="yes"/>
      <point x="197" y="94"/>
      <point x="153" y="176"/>
      <point x="153" y="264" type="curve" smooth="yes"/>
      <point x="153" y="352"/>
      <point x="196" y="433"/>
      <point x="301" y="433" type="curve" smooth="yes"/>
      <point x="406" y="433"/>
      <point x="451" y="367"/>
      <point x="451" y="264" type="curve" smooth="yes"/>
      <point x="451" y="162"/>
      <point x="406" y="94"/>
    </contour>
  </outline>
</glyph>
<glyph name="uni2C54" format="2">
  <advance width="564"/>
  <unicode hex="2C54"/>
  <outline>
    <contour>
      <point x="383" y="-10" type="curve" smooth="yes"/>
      <point x="444" y="-10"/>
      <point x="486" y="0"/>
      <point x="525" y="19" type="curve"/>
      <point x="525" y="95" type="line"/>
      <point x="485" y="79"/>
      <point x="440" y="65"/>
      <point x="381" y="65" type="curve" smooth="yes"/>
      <point x="277" y="65"/>
      <point x="213" y="121"/>
      <point x="206" y="242" type="curve"/>
      <point x="470" y="242" type="line"/>
      <point x="470" y="313" type="line"/>
      <point x="207" y="313" type="line"/>
      <point x="216" y="421"/>
      <point x="268" y="470"/>
      <point x="369" y="470" type="curve" smooth="yes"/>
      <point x="408" y="470"/>
      <point x="458" y="457"/>
      <point x="494" y="444" type="curve"/>
      <point x="519" y="515" type="line"/>
      <point x="481" y="532"/>
      <point x="424" y="546"/>
      <point x="370" y="546" type="curve" smooth="yes"/>
      <point x="232" y="546"/>
      <point x="132" y="479"/>
      <point x="117" y="313" type="curve"/>
      <point x="20" y="313" type="line"/>
      <point x="20" y="242" type="line"/>
      <point x="116" y="242" type="line"/>
      <point x="126" y="69"/>
      <point x="234" y="-10"/>
    </contour>
  </outline>
</glyph>
<glyph name="uni2C56" format="2">
  <advance width="722"/>
  <unicode hex="2C56"/>
  <outline>
    <contour>
      <point x="203" y="0" type="line"/>
      <point x="519" y="0" type="line"/>
      <point x="519" y="129" type="line" smooth="yes"/>
      <point x="519" y="168"/>
      <point x="512" y="209"/>
      <point x="492" y="242" type="curve"/>
      <point x="683" y="242" type="line"/>
      <point x="536" y="536" type="line"/>
      <point x="176" y="536" type="line"/>
      <point x="39" y="242" type="line"/>
      <point x="226" y="242" type="line"/>
      <point x="208" y="209"/>
      <point x="203" y="169"/>
      <point x="203" y="130" type="curve" smooth="yes"/>
    </contour>
    <contour>
      <point x="289" y="71" type="line"/>
      <point x="289" y="125" type="line" smooth="yes"/>
      <point x="289" y="191"/>
      <point x="298" y="236"/>
      <point x="361" y="236" type="curve" smooth="yes"/>
      <point x="425" y="236"/>
      <point x="433" y="198"/>
      <point x="433" y="125" type="curve" smooth="yes"/>
      <point x="433" y="71" type="line"/>
    </contour>
    <contour>
      <point x="153" y="313" type="line"/>
      <point x="224" y="465" type="line"/>
      <point x="323" y="465" type="line"/>
      <point x="323" y="313" type="line"/>
    </contour>
    <contour>
      <point x="399" y="313" type="line"/>
      <point x="399" y="465" type="line"/>
      <point x="489" y="465" type="line"/>
      <point x="565" y="313" type="line"/>
    </contour>
  </outline>
</glyph>
<glyph name="uni2C59" format="2">
  <advance width="1038"/>
  <unicode hex="2C59"/>
  <outline>
    <contour>
      <point x="897" y="-10" type="curve" smooth="yes"/>
      <point x="942" y="-10"/>
      <point x="973" y="-4"/>
      <point x="999" y="6" type="curve"/>
      <point x="999" y="83" type="line"/>
      <point x="972" y="72"/>
      <point x="946" y="65"/>
      <point x="902" y="65" type="curve" smooth="yes"/>
      <point x="829" y="65"/>
      <point x="792" y="133"/>
      <point x="786" y="242" type="curve"/>
      <point x="957" y="242" type="line"/>
      <point x="957" y="313" type="line"/>
      <point x="786" y="313" type="line"/>
      <point x="792" y="404"/>
      <point x="821" y="470"/>
      <point x="905" y="470" type="curve" smooth="yes"/>
      <point x="917" y="470"/>
      <point x="954" y="468"/>
      <point x="981" y="456" type="curve"/>
      <point x="999" y="531" type="line"/>
      <point x="969" y="541"/>
      <point x="932" y="546"/>
      <point x="891" y="546" type="curve" smooth="yes"/>
      <point x="755" y="546"/>
      <point x="703" y="444"/>
      <point x="694" y="313" type="curve"/>
      <point x="647" y="313" type="line"/>
      <point x="536" y="536" type="line"/>
      <point x="176" y="536" type="line"/>
      <point x="39" y="242" type="line"/>
      <point x="226" y="242" type="line"/>
      <point x="208" y="209"/>
      <point x="203" y="169"/>
      <point x="203" y="130" type="curve" smooth="yes"/>
      <point x="203" y="0" type="line"/>
      <point x="519" y="0" type="line"/>
      <point x="519" y="129" type="line" smooth="yes"/>
      <point x="519" y="168"/>
      <point x="512" y="209"/>
      <point x="492" y="242" type="curve"/>
      <point x="693" y="242" type="line"/>
      <point x="700" y="90"/>
      <point x="764" y="-10"/>
    </contour>
    <contour>
      <point x="289" y="71" type="line"/>
      <point x="289" y="125" type="line" smooth="yes"/>
      <point x="289" y="191"/>
      <point x="298" y="236"/>
      <point x="361" y="236" type="curve" smooth="yes"/>
      <point x="425" y="236"/>
      <point x="433" y="198"/>
      <point x="433" y="125" type="curve" smooth="yes"/>
      <point x="433" y="71" type="line"/>
    </contour>
    <contour>
      <point x="153" y="313" type="line"/>
      <point x="224" y="465" type="line"/>
      <point x="323" y="465" type="line"/>
      <point x="323" y="313" type="line"/>
    </contour>
    <contour>
      <point x="399" y="313" type="line"/>
      <point x="399" y="465" type="line"/>
      <point x="489" y="465" type="line"/>
      <point x="565" y="313" type="line"/>
    </contour>
  </outline>
</glyph>
<glyph name="uni2C5A" format="2">
  <advance width="797"/>
  <unicode hex="2C5A"/>
  <outline>
    <contour>
      <point x="396" y="-10" type="curve" smooth="yes"/>
      <point x="532" y="-10"/>
      <point x="618" y="81"/>
      <point x="626" y="242" type="curve"/>
      <point x="644" y="242" type="line" smooth="yes"/>
      <point x="673" y="242"/>
      <point x="678" y="232"/>
      <point x="678" y="208" type="curve" smooth="yes"/>
      <point x="678" y="188" type="line"/>
      <point x="749" y="188" type="line"/>
      <point x="749" y="252" type="line" smooth="yes"/>
      <point x="749" y="301"/>
      <point x="737" y="313"/>
      <point x="685" y="313" type="curve" smooth="yes"/>
      <point x="625" y="313" type="line"/>
      <point x="611" y="462"/>
      <point x="523" y="546"/>
      <point x="400" y="546" type="curve" smooth="yes"/>
      <point x="268" y="546"/>
      <point x="185" y="462"/>
      <point x="172" y="313" type="curve"/>
      <point x="112" y="313" type="line" smooth="yes"/>
      <point x="60" y="313"/>
      <point x="49" y="301"/>
      <point x="49" y="252" type="curve" smooth="yes"/>
      <point x="49" y="188" type="line"/>
      <point x="119" y="188" type="line"/>
      <point x="119" y="208" type="line" smooth="yes"/>
      <point x="119" y="232"/>
      <point x="124" y="242"/>
      <point x="153" y="242" type="curve" smooth="yes"/>
      <point x="171" y="242" type="line"/>
      <point x="180" y="81"/>
      <point x="271" y="-10"/>
    </contour>
    <contour>
      <point x="399" y="63" type="curve" smooth="yes"/>
      <point x="307" y="63"/>
      <point x="267" y="131"/>
      <point x="262" y="242" type="curve"/>
      <point x="535" y="242" type="line"/>
      <point x="530" y="131"/>
      <point x="490" y="63"/>
    </contour>
    <contour>
      <point x="263" y="313" type="line"/>
      <point x="271" y="413"/>
      <point x="310" y="472"/>
      <point x="397" y="472" type="curve" smooth="yes"/>
      <point x="485" y="472"/>
      <point x="526" y="413"/>
      <point x="534" y="313" type="curve"/>
    </contour>
  </outline>
</glyph>
<glyph name="uni2C5E" format="2">
  <advance width="771"/>
  <unicode hex="2C5E"/>
  <outline>
    <contour>
      <point x="165" y="-10" type="curve" smooth="yes"/>
      <point x="256" y="-10"/>
      <point x="279" y="41"/>
      <point x="279" y="83" type="curve" smooth="yes"/>
      <point x="279" y="175"/>
      <point x="194" y="206"/>
      <point x="194" y="331" type="curve" smooth="yes"/>
      <point x="194" y="386"/>
      <point x="216" y="458"/>
      <point x="343" y="473" type="curve"/>
      <point x="343" y="0" type="line"/>
      <point x="429" y="0" type="line"/>
      <point x="429" y="474" type="line"/>
      <point x="554" y="462"/>
      <point x="577" y="388"/>
      <point x="577" y="331" type="curve" smooth="yes"/>
      <point x="577" y="206"/>
      <point x="492" y="175"/>
      <point x="492" y="83" type="curve" smooth="yes"/>
      <point x="492" y="41"/>
      <point x="515" y="-10"/>
      <point x="607" y="-10" type="curve" smooth="yes"/>
      <point x="698" y="-10"/>
      <point x="728" y="59"/>
      <point x="732" y="102" type="curve"/>
      <point x="658" y="114" type="line"/>
      <point x="652" y="88"/>
      <point x="639" y="62"/>
      <point x="612" y="62" type="curve" smooth="yes"/>
      <point x="591" y="62"/>
      <point x="581" y="69"/>
      <point x="581" y="91" type="curve" smooth="yes"/>
      <point x="581" y="154"/>
      <point x="667" y="205"/>
      <point x="667" y="331" type="curve" smooth="yes"/>
      <point x="667" y="424"/>
      <point x="604" y="546"/>
      <point x="394" y="546" type="curve" smooth="yes"/>
      <point x="246" y="546"/>
      <point x="104" y="487"/>
      <point x="104" y="331" type="curve" smooth="yes"/>
      <point x="104" y="200"/>
      <point x="191" y="154"/>
      <point x="191" y="91" type="curve" smooth="yes"/>
      <point x="191" y="69"/>
      <point x="181" y="62"/>
      <point x="159" y="62" type="curve" smooth="yes"/>
      <point x="132" y="62"/>
      <point x="119" y="88"/>
      <point x="113" y="114" type="curve"/>
      <point x="39" y="102" type="line"/>
      <point x="43" y="59"/>
      <point x="73" y="-10"/>
    </contour>
  </outline>
</glyph>
<glyph name="uniA66F" format="2">
  <unicode hex="A66F"/>
  <outline>
    <contour>
      <point x="-220" y="605" type="curve" smooth="yes"/>
      <point x="-195" y="605"/>
      <point x="-182" y="620"/>
      <point x="-181" y="651" type="curve"/>
      <point x="180" y="651" type="line"/>
      <point x="181" y="620"/>
      <point x="195" y="605"/>
      <point x="220" y="605" type="curve" smooth="yes"/>
      <point x="247" y="605"/>
      <point x="260" y="621"/>
      <point x="260" y="652" type="curve" smooth="yes"/>
      <point x="260" y="684"/>
      <point x="247" y="703"/>
      <point x="219" y="703" type="curve" smooth="yes"/>
      <point x="-220" y="703" type="line" smooth="yes"/>
      <point x="-247" y="703"/>
      <point x="-260" y="685"/>
      <point x="-260" y="652" type="curve" smooth="yes"/>
      <point x="-260" y="621"/>
      <point x="-247" y="605"/>
    </contour>
  </outline>
</glyph>
<glyph name="u1E008" format="2">
  <unicode hex="1E008"/>
  <outline>
    <contour>
      <point x="-189" y="605" type="line"/>
      <point x="-132" y="605" type="line" smooth="yes"/>
      <point x="-67" y="605"/>
      <point x="-23" y="651"/>
      <point x="-18" y="725" type="curve"/>
      <point x="15" y="725" type="line"/>
      <point x="15" y="651" type="line" smooth="yes"/>
      <point x="15" y="618"/>
      <point x="20" y="605"/>
      <point x="53" y="605" type="curve" smooth="yes"/>
      <point x="151" y="605" type="line" smooth="yes"/>
      <point x="186" y="605"/>
      <point x="190" y="618"/>
      <point x="190" y="651" type="curve" smooth="yes"/>
      <point x="190" y="724" type="line" smooth="yes"/>
      <point x="190" y="757"/>
      <point x="186" y="769"/>
      <point x="151" y="769" type="curve" smooth="yes"/>
      <point x="-18" y="769" type="line"/>
      <point x="-25" y="843"/>
      <point x="-69" y="874"/>
      <point x="-132" y="874" type="curve" smooth="yes"/>
      <point x="-189" y="874" type="line"/>
    </contour>
    <contour>
      <point x="-134" y="649" type="line"/>
      <point x="-134" y="725" type="line"/>
      <point x="-75" y="725" type="line"/>
      <point x="-78" y="674"/>
      <point x="-91" y="649"/>
      <point x="-125" y="649" type="curve" smooth="yes"/>
    </contour>
    <contour>
      <point x="-134" y="769" type="line"/>
      <point x="-134" y="830" type="line"/>
      <point x="-124" y="830" type="line" smooth="yes"/>
      <point x="-102" y="830"/>
      <point x="-80" y="813"/>
      <point x="-76" y="769" type="curve"/>
    </contour>
    <contour>
      <point x="87" y="649" type="line" smooth="yes"/>
      <point x="75" y="649"/>
      <point x="70" y="651"/>
      <point x="70" y="667" type="curve" smooth="yes"/>
      <point x="70" y="725" type="line"/>
      <point x="117" y="725" type="line" smooth="yes"/>
      <point x="129" y="725"/>
      <point x="134" y="723"/>
      <point x="134" y="708" type="curve" smooth="yes"/>
      <point x="134" y="667" type="line" smooth="yes"/>
      <point x="134" y="651"/>
      <point x="129" y="649"/>
      <point x="117" y="649" type="curve" smooth="yes"/>
    </contour>
  </outline>
</glyph>
<glyph name="u1E009" format="2">
  <unicode hex="1E009"/>
  <outline>
    <contour>
      <point x="-67" y="605" type="line"/>
      <point x="67" y="605" type="line"/>
      <point x="67" y="649" type="line"/>
      <point x="28" y="649" type="line"/>
      <point x="28" y="720" type="line"/>
      <point x="43" y="724"/>
      <point x="54" y="732"/>
      <point x="63" y="741" type="curve"/>
      <point x="77" y="726"/>
      <point x="98" y="717"/>
      <point x="126" y="717" type="curve" smooth="yes"/>
      <point x="188" y="717"/>
      <point x="217" y="751"/>
      <point x="217" y="808" type="curve" smooth="yes"/>
      <point x="217" y="874" type="line"/>
      <point x="-217" y="874" type="line"/>
      <point x="-217" y="808" type="line" smooth="yes"/>
      <point x="-217" y="751"/>
      <point x="-188" y="717"/>
      <point x="-125" y="717" type="curve" smooth="yes"/>
      <point x="-98" y="717"/>
      <point x="-79" y="726"/>
      <point x="-64" y="740" type="curve"/>
      <point x="-55" y="729"/>
      <point x="-45" y="723"/>
      <point x="-28" y="720" type="curve"/>
      <point x="-28" y="649" type="line"/>
      <point x="-67" y="649" type="line"/>
    </contour>
    <contour>
      <point x="-125" y="762" type="curve" smooth="yes"/>
      <point x="-159" y="762"/>
      <point x="-161" y="780"/>
      <point x="-161" y="813" type="curve" smooth="yes"/>
      <point x="-161" y="830" type="line"/>
      <point x="-90" y="830" type="line"/>
      <point x="-90" y="813" type="line" smooth="yes"/>
      <point x="-90" y="777"/>
      <point x="-93" y="762"/>
    </contour>
    <contour>
      <point x="0" y="762" type="curve" smooth="yes"/>
      <point x="-31" y="762"/>
      <point x="-35" y="779"/>
      <point x="-35" y="810" type="curve" smooth="yes"/>
      <point x="-35" y="830" type="line"/>
      <point x="35" y="830" type="line"/>
      <point x="35" y="813" type="line" smooth="yes"/>
      <point x="35" y="777"/>
      <point x="33" y="762"/>
    </contour>
    <contour>
      <point x="126" y="762" type="curve" smooth="yes"/>
      <point x="94" y="762"/>
      <point x="91" y="776"/>
      <point x="91" y="810" type="curve" smooth="yes"/>
      <point x="91" y="830" type="line"/>
      <point x="162" y="830" type="line"/>
      <point x="162" y="813" type="line" smooth="yes"/>
      <point x="162" y="780"/>
      <point x="159" y="762"/>
    </contour>
  </outline>
</glyph>
<glyph name="u1E00A" format="2">
  <unicode hex="1E00A"/>
  <outline>
    <contour>
      <point x="-89" y="605" type="line"/>
      <point x="92" y="605" type="line"/>
      <point x="92" y="669" type="line" smooth="yes"/>
      <point x="92" y="695"/>
      <point x="82" y="721"/>
      <point x="61" y="738" type="curve"/>
      <point x="63" y="741" type="line"/>
      <point x="77" y="726"/>
      <point x="98" y="717"/>
      <point x="126" y="717" type="curve" smooth="yes"/>
      <point x="188" y="717"/>
      <point x="217" y="751"/>
      <point x="217" y="808" type="curve" smooth="yes"/>
      <point x="217" y="874" type="line"/>
      <point x="-217" y="874" type="line"/>
      <point x="-217" y="808" type="line" smooth="yes"/>
      <point x="-217" y="751"/>
      <point x="-188" y="717"/>
      <point x="-125" y="717" type="curve" smooth="yes"/>
      <point x="-98" y="717"/>
      <point x="-79" y="726"/>
      <point x="-64" y="740" type="curve"/>
      <point x="-62" y="737" type="line"/>
      <point x="-82" y="720"/>
      <point x="-89" y="694"/>
      <point x="-89" y="669" type="curve" smooth="yes"/>
    </contour>
    <contour>
      <point x="-125" y="762" type="curve" smooth="yes"/>
      <point x="-159" y="762"/>
      <point x="-161" y="780"/>
      <point x="-161" y="813" type="curve" smooth="yes"/>
      <point x="-161" y="830" type="line"/>
      <point x="-90" y="830" type="line"/>
      <point x="-90" y="813" type="line" smooth="yes"/>
      <point x="-90" y="777"/>
      <point x="-93" y="762"/>
    </contour>
    <contour>
      <point x="-34" y="649" type="line"/>
      <point x="-34" y="669" type="line" smooth="yes"/>
      <point x="-34" y="699"/>
      <point x="-32" y="719"/>
      <point x="1" y="719" type="curve" smooth="yes"/>
      <point x="34" y="719"/>
      <point x="36" y="702"/>
      <point x="36" y="669" type="curve" smooth="yes"/>
      <point x="36" y="649" type="line"/>
    </contour>
    <contour>
      <point x="0" y="762" type="curve" smooth="yes"/>
      <point x="-31" y="762"/>
      <point x="-35" y="779"/>
      <point x="-35" y="810" type="curve" smooth="yes"/>
      <point x="-35" y="830" type="line"/>
      <point x="35" y="830" type="line"/>
      <point x="35" y="813" type="line" smooth="yes"/>
      <point x="35" y="777"/>
      <point x="33" y="762"/>
    </contour>
    <contour>
      <point x="126" y="762" type="curve" smooth="yes"/>
      <point x="94" y="762"/>
      <point x="91" y="776"/>
      <point x="91" y="810" type="curve" smooth="yes"/>
      <point x="91" y="830" type="line"/>
      <point x="162" y="830" type="line"/>
      <point x="162" y="813" type="line" smooth="yes"/>
      <point x="162" y="780"/>
      <point x="159" y="762"/>
    </contour>
  </outline>
</glyph>
<glyph name="u1E00C" format="2">
  <unicode hex="1E00C"/>
  <outline>
    <contour>
      <point x="-210" y="605" type="line"/>
      <point x="-155" y="605" type="line"/>
      <point x="-155" y="808" type="line" smooth="yes"/>
      <point x="-155" y="826"/>
      <point x="-155" y="830"/>
      <point x="-135" y="830" type="curve" smooth="yes"/>
      <point x="-107" y="830" type="line" smooth="yes"/>
      <point x="-88" y="830"/>
      <point x="-88" y="826"/>
      <point x="-88" y="808" type="curve" smooth="yes"/>
      <point x="-88" y="605" type="line"/>
      <point x="-32" y="605" type="line"/>
      <point x="-32" y="714" type="line"/>
      <point x="22" y="714" type="line"/>
      <point x="22" y="605" type="line"/>
      <point x="78" y="605" type="line"/>
      <point x="78" y="713" type="line"/>
      <point x="172" y="718"/>
      <point x="210" y="757"/>
      <point x="210" y="817" type="curve" smooth="yes"/>
      <point x="210" y="849" type="line" smooth="yes"/>
      <point x="210" y="866"/>
      <point x="199" y="874"/>
      <point x="183" y="874" type="curve" smooth="yes"/>
      <point x="62" y="874" type="line" smooth="yes"/>
      <point x="27" y="874"/>
      <point x="22" y="859"/>
      <point x="22" y="831" type="curve" smooth="yes"/>
      <point x="22" y="757" type="line"/>
      <point x="-32" y="757" type="line"/>
      <point x="-32" y="823" type="line" smooth="yes"/>
      <point x="-32" y="861"/>
      <point x="-35" y="874"/>
      <point x="-80" y="874" type="curve" smooth="yes"/>
      <point x="-163" y="874" type="line" smooth="yes"/>
      <point x="-208" y="874"/>
      <point x="-210" y="863"/>
      <point x="-210" y="826" type="curve" smooth="yes"/>
    </contour>
    <contour>
      <point x="78" y="757" type="curve"/>
      <point x="78" y="814" type="line" smooth="yes"/>
      <point x="78" y="825"/>
      <point x="83" y="830"/>
      <point x="94" y="830" type="curve" smooth="yes"/>
      <point x="143" y="830" type="line" smooth="yes"/>
      <point x="153" y="830"/>
      <point x="155" y="823"/>
      <point x="155" y="812" type="curve" smooth="yes"/>
      <point x="155" y="793"/>
      <point x="146" y="761"/>
    </contour>
  </outline>
</glyph>
<glyph name="u1E00E" format="2">
  <unicode hex="1E00E"/>
  <outline>
    <contour>
      <point x="-164" y="605" type="curve" smooth="yes"/>
      <point x="-66" y="605" type="line" smooth="yes"/>
      <point x="-33" y="605"/>
      <point x="-25" y="618"/>
      <point x="-25" y="651" type="curve" smooth="yes"/>
      <point x="-25" y="721" type="line"/>
      <point x="25" y="721" type="line"/>
      <point x="25" y="651" type="line" smooth="yes"/>
      <point x="25" y="618"/>
      <point x="33" y="605"/>
      <point x="66" y="605" type="curve" smooth="yes"/>
      <point x="164" y="605" type="line" smooth="yes"/>
      <point x="197" y="605"/>
      <point x="203" y="618"/>
      <point x="203" y="651" type="curve" smooth="yes"/>
      <point x="203" y="719" type="line" smooth="yes"/>
      <point x="203" y="752"/>
      <point x="197" y="765"/>
      <point x="164" y="765" type="curve" smooth="yes"/>
      <point x="81" y="765" type="line"/>
      <point x="81" y="831" type="line" smooth="yes"/>
      <point x="81" y="869"/>
      <point x="76" y="874"/>
      <point x="36" y="874" type="curve" smooth="yes"/>
      <point x="-36" y="874" type="line" smooth="yes"/>
      <point x="-75" y="874"/>
      <point x="-81" y="868"/>
      <point x="-81" y="831" type="curve" smooth="yes"/>
      <point x="-81" y="765" type="line"/>
      <point x="-164" y="765" type="line" smooth="yes"/>
      <point x="-197" y="765"/>
      <point x="-203" y="752"/>
      <point x="-203" y="719" type="curve" smooth="yes"/>
      <point x="-203" y="651" type="line" smooth="yes"/>
      <point x="-203" y="618"/>
      <point x="-197" y="605"/>
    </contour>
    <contour>
      <point x="-130" y="649" type="line" smooth="yes"/>
      <point x="-142" y="649"/>
      <point x="-147" y="651"/>
      <point x="-147" y="667" type="curve" smooth="yes"/>
      <point x="-147" y="703" type="line" smooth="yes"/>
      <point x="-147" y="718"/>
      <point x="-142" y="721"/>
      <point x="-130" y="721" type="curve" smooth="yes"/>
      <point x="-81" y="721" type="line"/>
      <point x="-81" y="667" type="line" smooth="yes"/>
      <point x="-81" y="651"/>
      <point x="-85" y="649"/>
      <point x="-97" y="649" type="curve" smooth="yes"/>
    </contour>
    <contour>
      <point x="-25" y="765" type="line"/>
      <point x="-25" y="808" type="line" smooth="yes"/>
      <point x="-25" y="826"/>
      <point x="-25" y="830"/>
      <point x="-11" y="830" type="curve" smooth="yes"/>
      <point x="11" y="830" type="line" smooth="yes"/>
      <point x="25" y="830"/>
      <point x="25" y="826"/>
      <point x="25" y="808" type="curve" smooth="yes"/>
      <point x="25" y="765" type="line"/>
    </contour>
    <contour>
      <point x="98" y="649" type="line" smooth="yes"/>
      <point x="86" y="649"/>
      <point x="81" y="651"/>
      <point x="81" y="667" type="curve" smooth="yes"/>
      <point x="81" y="721" type="line"/>
      <point x="130" y="721" type="line" smooth="yes"/>
      <point x="142" y="721"/>
      <point x="147" y="718"/>
      <point x="147" y="703" type="curve" smooth="yes"/>
      <point x="147" y="667" type="line" smooth="yes"/>
      <point x="147" y="651"/>
      <point x="142" y="649"/>
      <point x="130" y="649" type="curve" smooth="yes"/>
    </contour>
  </outline>
</glyph>
<glyph name="u1E00F" format="2">
  <unicode hex="1E00F"/>
  <outline>
    <contour>
      <point x="-151" y="605" type="line"/>
      <point x="-96" y="605" type="line"/>
      <point x="-96" y="782" type="line" smooth="yes"/>
      <point x="-96" y="811"/>
      <point x="-96" y="834"/>
      <point x="-63" y="834" type="curve" smooth="yes"/>
      <point x="-31" y="834"/>
      <point x="-28" y="815"/>
      <point x="-28" y="782" type="curve" smooth="yes"/>
      <point x="-28" y="605" type="line"/>
      <point x="28" y="605" type="line"/>
      <point x="28" y="782" type="line" smooth="yes"/>
      <point x="28" y="814"/>
      <point x="30" y="834"/>
      <point x="63" y="834" type="curve" smooth="yes"/>
      <point x="96" y="834"/>
      <point x="96" y="811"/>
      <point x="96" y="782" type="curve" smooth="yes"/>
      <point x="96" y="605" type="line"/>
      <point x="151" y="605" type="line"/>
      <point x="151" y="790" type="line" smooth="yes"/>
      <point x="151" y="833"/>
      <point x="133" y="879"/>
      <point x="63" y="879" type="curve" smooth="yes"/>
      <point x="34" y="879"/>
      <point x="14" y="871"/>
      <point x="0" y="856" type="curve"/>
      <point x="-14" y="871"/>
      <point x="-35" y="879"/>
      <point x="-63" y="879" type="curve" smooth="yes"/>
      <point x="-133" y="879"/>
      <point x="-151" y="833"/>
      <point x="-151" y="790" type="curve" smooth="yes"/>
    </contour>
  </outline>
</glyph>
<glyph name="u1E010" format="2">
  <unicode hex="1E010"/>
  <outline>
    <contour>
      <point x="-94" y="605" type="line"/>
      <point x="-38" y="605" type="line"/>
      <point x="-38" y="713" type="line"/>
      <point x="56" y="718"/>
      <point x="94" y="757"/>
      <point x="94" y="817" type="curve" smooth="yes"/>
      <point x="94" y="849" type="line" smooth="yes"/>
      <point x="94" y="866"/>
      <point x="83" y="874"/>
      <point x="67" y="874" type="curve" smooth="yes"/>
      <point x="-54" y="874" type="line" smooth="yes"/>
      <point x="-89" y="874"/>
      <point x="-94" y="859"/>
      <point x="-94" y="831" type="curve" smooth="yes"/>
    </contour>
    <contour>
      <point x="-38" y="757" type="curve"/>
      <point x="-38" y="814" type="line" smooth="yes"/>
      <point x="-38" y="825"/>
      <point x="-33" y="830"/>
      <point x="-22" y="830" type="curve" smooth="yes"/>
      <point x="27" y="830" type="line" smooth="yes"/>
      <point x="37" y="830"/>
      <point x="39" y="823"/>
      <point x="39" y="812" type="curve" smooth="yes"/>
      <point x="39" y="793"/>
      <point x="29" y="761"/>
    </contour>
  </outline>
</glyph>
<glyph name="u1E011" format="2">
  <unicode hex="1E011"/>
  <outline>
    <contour>
      <point x="-41" y="605" type="curve" smooth="yes"/>
      <point x="46" y="605" type="line" smooth="yes"/>
      <point x="88" y="605"/>
      <point x="96" y="611"/>
      <point x="96" y="643" type="curve" smooth="yes"/>
      <point x="96" y="836" type="line" smooth="yes"/>
      <point x="96" y="866"/>
      <point x="94" y="874"/>
      <point x="51" y="874" type="curve" smooth="yes"/>
      <point x="-44" y="874" type="line" smooth="yes"/>
      <point x="-86" y="874"/>
      <point x="-96" y="844"/>
      <point x="-96" y="820" type="curve" smooth="yes"/>
      <point x="-96" y="784"/>
      <point x="-73" y="760"/>
      <point x="-34" y="744" type="curve"/>
      <point x="-72" y="726"/>
      <point x="-96" y="695"/>
      <point x="-96" y="659" type="curve" smooth="yes"/>
      <point x="-96" y="635"/>
      <point x="-92" y="605"/>
    </contour>
    <contour>
      <point x="-26" y="649" type="line" smooth="yes"/>
      <point x="-39" y="649"/>
      <point x="-41" y="659"/>
      <point x="-41" y="670" type="curve" smooth="yes"/>
      <point x="-41" y="695"/>
      <point x="-18" y="720"/>
      <point x="41" y="725" type="curve"/>
      <point x="41" y="664" type="line" smooth="yes"/>
      <point x="41" y="655"/>
      <point x="39" y="649"/>
      <point x="29" y="649" type="curve" smooth="yes"/>
    </contour>
    <contour>
      <point x="41" y="765" type="line"/>
      <point x="-19" y="767"/>
      <point x="-41" y="790"/>
      <point x="-41" y="810" type="curve" smooth="yes"/>
      <point x="-41" y="821"/>
      <point x="-41" y="830"/>
      <point x="-20" y="830" type="curve" smooth="yes"/>
      <point x="27" y="830" type="line" smooth="yes"/>
      <point x="39" y="830"/>
      <point x="41" y="825"/>
      <point x="41" y="816" type="curve" smooth="yes"/>
    </contour>
  </outline>
</glyph>
<glyph name="u1E012" format="2">
  <unicode hex="1E012"/>
  <outline>
    <contour>
      <point x="-140" y="605" type="line"/>
      <point x="-84" y="605" type="line"/>
      <point x="-84" y="808" type="line" smooth="yes"/>
      <point x="-84" y="826"/>
      <point x="-84" y="830"/>
      <point x="-65" y="830" type="curve" smooth="yes"/>
      <point x="-37" y="830" type="line"/>
      <point x="-37" y="728" type="line" smooth="yes"/>
      <point x="-37" y="695"/>
      <point x="-32" y="683"/>
      <point x="2" y="683" type="curve" smooth="yes"/>
      <point x="102" y="683" type="line" smooth="yes"/>
      <point x="135" y="683"/>
      <point x="141" y="695"/>
      <point x="141" y="728" type="curve" smooth="yes"/>
      <point x="141" y="828" type="line" smooth="yes"/>
      <point x="141" y="861"/>
      <point x="135" y="874"/>
      <point x="102" y="874" type="curve" smooth="yes"/>
      <point x="-93" y="874" type="line" smooth="yes"/>
      <point x="-137" y="874"/>
      <point x="-140" y="863"/>
      <point x="-140" y="826" type="curve" smooth="yes"/>
    </contour>
    <contour>
      <point x="36" y="727" type="line" smooth="yes"/>
      <point x="24" y="727"/>
      <point x="19" y="729"/>
      <point x="19" y="744" type="curve" smooth="yes"/>
      <point x="19" y="830" type="line"/>
      <point x="68" y="830" type="line" smooth="yes"/>
      <point x="80" y="830"/>
      <point x="85" y="828"/>
      <point x="85" y="813" type="curve" smooth="yes"/>
      <point x="85" y="744" type="line" smooth="yes"/>
      <point x="85" y="729"/>
      <point x="80" y="727"/>
      <point x="68" y="727" type="curve" smooth="yes"/>
    </contour>
  </outline>
</glyph>
<glyph name="u1E016" format="2">
  <unicode hex="1E016"/>
  <outline>
    <contour>
      <point x="-104" y="605" type="curve" smooth="yes"/>
      <point x="121" y="605" type="line" smooth="yes"/>
      <point x="154" y="605"/>
      <point x="160" y="618"/>
      <point x="160" y="651" type="curve" smooth="yes"/>
      <point x="160" y="828" type="line" smooth="yes"/>
      <point x="160" y="861"/>
      <point x="154" y="874"/>
      <point x="121" y="874" type="curve" smooth="yes"/>
      <point x="-107" y="874" type="line" smooth="yes"/>
      <point x="-149" y="874"/>
      <point x="-160" y="844"/>
      <point x="-160" y="820" type="curve" smooth="yes"/>
      <point x="-160" y="784"/>
      <point x="-136" y="760"/>
      <point x="-98" y="744" type="curve"/>
      <point x="-136" y="726"/>
      <point x="-160" y="695"/>
      <point x="-160" y="659" type="curve" smooth="yes"/>
      <point x="-160" y="635"/>
      <point x="-155" y="605"/>
    </contour>
    <contour>
      <point x="-89" y="649" type="line" smooth="yes"/>
      <point x="-103" y="649"/>
      <point x="-104" y="659"/>
      <point x="-104" y="670" type="curve" smooth="yes"/>
      <point x="-104" y="695"/>
      <point x="-81" y="720"/>
      <point x="-23" y="725" type="curve"/>
      <point x="-23" y="664" type="line" smooth="yes"/>
      <point x="-23" y="655"/>
      <point x="-25" y="649"/>
      <point x="-34" y="649" type="curve" smooth="yes"/>
    </contour>
    <contour>
      <point x="-23" y="765" type="line"/>
      <point x="-83" y="767"/>
      <point x="-104" y="790"/>
      <point x="-104" y="810" type="curve" smooth="yes"/>
      <point x="-104" y="821"/>
      <point x="-104" y="830"/>
      <point x="-83" y="830" type="curve" smooth="yes"/>
      <point x="-36" y="830" type="line" smooth="yes"/>
      <point x="-24" y="830"/>
      <point x="-23" y="825"/>
      <point x="-23" y="816" type="curve" smooth="yes"/>
    </contour>
    <contour>
      <point x="33" y="649" type="line"/>
      <point x="33" y="721" type="line"/>
      <point x="104" y="721" type="line"/>
      <point x="104" y="667" type="line" smooth="yes"/>
      <point x="104" y="651"/>
      <point x="99" y="649"/>
      <point x="87" y="649" type="curve" smooth="yes"/>
    </contour>
    <contour>
      <point x="33" y="764" type="line"/>
      <point x="33" y="830" type="line"/>
      <point x="87" y="830" type="line" smooth="yes"/>
      <point x="99" y="830"/>
      <point x="104" y="828"/>
      <point x="104" y="813" type="curve" smooth="yes"/>
      <point x="104" y="764" type="line"/>
    </contour>
  </outline>
</glyph>
<glyph name="u1E017" format="2">
  <unicode hex="1E017"/>
  <outline>
    <contour>
      <point x="-28" y="524" type="line"/>
      <point x="28" y="524" type="line"/>
      <point x="28" y="602" type="line"/>
      <point x="118" y="609"/>
      <point x="170" y="659"/>
      <point x="170" y="740" type="curve" smooth="yes"/>
      <point x="170" y="821"/>
      <point x="115" y="872"/>
      <point x="28" y="880" type="curve"/>
      <point x="28" y="951" type="line"/>
      <point x="-26" y="951" type="line"/>
      <point x="-26" y="880" type="line"/>
      <point x="-119" y="872"/>
      <point x="-170" y="821"/>
      <point x="-170" y="740" type="curve" smooth="yes"/>
      <point x="-170" y="659"/>
      <point x="-114" y="609"/>
      <point x="-28" y="602" type="curve"/>
    </contour>
    <contour>
      <point x="-26" y="646" type="line"/>
      <point x="-85" y="652"/>
      <point x="-111" y="682"/>
      <point x="-111" y="740" type="curve" smooth="yes"/>
      <point x="-111" y="799"/>
      <point x="-86" y="830"/>
      <point x="-26" y="834" type="curve"/>
    </contour>
    <contour>
      <point x="28" y="646" type="curve"/>
      <point x="28" y="834" type="line"/>
      <point x="85" y="829"/>
      <point x="112" y="798"/>
      <point x="112" y="740" type="curve" smooth="yes"/>
      <point x="112" y="683"/>
      <point x="86" y="653"/>
    </contour>
  </outline>
</glyph>
<glyph name="u1E01C" format="2">
  <unicode hex="1E01C"/>
  <outline>
    <contour>
      <point x="34" y="605" type="curve" smooth="yes"/>
      <point x="75" y="605" type="line" smooth="yes"/>
      <point x="110" y="605"/>
      <point x="112" y="613"/>
      <point x="117" y="642" type="curve" smooth="yes"/>
      <point x="158" y="874" type="line"/>
      <point x="104" y="874" type="line"/>
      <point x="67" y="664" type="line" smooth="yes"/>
      <point x="65" y="652"/>
      <point x="63" y="649"/>
      <point x="56" y="649" type="curve" smooth="yes"/>
      <point x="48" y="649"/>
      <point x="47" y="651"/>
      <point x="45" y="664" type="curve" smooth="yes"/>
      <point x="15" y="836" type="line" smooth="yes"/>
      <point x="9" y="868"/>
      <point x="4" y="874"/>
      <point x="-38" y="874" type="curve" smooth="yes"/>
      <point x="-103" y="874" type="line" smooth="yes"/>
      <point x="-153" y="874"/>
      <point x="-158" y="844"/>
      <point x="-158" y="820" type="curve" smooth="yes"/>
      <point x="-158" y="764"/>
      <point x="-103" y="726"/>
      <point x="-21" y="723" type="curve"/>
      <point x="-7" y="642" type="line" smooth="yes"/>
      <point x="-2" y="613"/>
      <point x="0" y="605"/>
    </contour>
    <contour>
      <point x="-28" y="766" type="line"/>
      <point x="-79" y="771"/>
      <point x="-103" y="787"/>
      <point x="-103" y="814" type="curve" smooth="yes"/>
      <point x="-103" y="826"/>
      <point x="-101" y="830"/>
      <point x="-88" y="830" type="curve" smooth="yes"/>
      <point x="-51" y="830" type="line" smooth="yes"/>
      <point x="-42" y="830"/>
      <point x="-40" y="829"/>
      <point x="-38" y="820" type="curve" smooth="yes"/>
    </contour>
  </outline>
</glyph>
<glyph name="u1E01E" format="2">
  <unicode hex="1E01E"/>
  <outline>
    <contour>
      <point x="-119" y="605" type="curve" smooth="yes"/>
      <point x="119" y="605" type="line" smooth="yes"/>
      <point x="156" y="605"/>
      <point x="158" y="621"/>
      <point x="158" y="651" type="curve" smooth="yes"/>
      <point x="158" y="874" type="line"/>
      <point x="102" y="874" type="line"/>
      <point x="102" y="667" type="line" smooth="yes"/>
      <point x="102" y="654"/>
      <point x="100" y="649"/>
      <point x="85" y="649" type="curve" smooth="yes"/>
      <point x="28" y="649" type="line"/>
      <point x="28" y="874" type="line"/>
      <point x="-28" y="874" type="line"/>
      <point x="-28" y="649" type="line"/>
      <point x="-85" y="649" type="line" smooth="yes"/>
      <point x="-100" y="649"/>
      <point x="-102" y="654"/>
      <point x="-102" y="667" type="curve" smooth="yes"/>
      <point x="-102" y="874" type="line"/>
      <point x="-158" y="874" type="line"/>
      <point x="-158" y="651" type="line" smooth="yes"/>
      <point x="-158" y="621"/>
      <point x="-156" y="605"/>
    </contour>
  </outline>
</glyph>
<glyph name="u1E01F" format="2">
  <unicode hex="1E01F"/>
  <outline>
    <contour>
      <point x="-31" y="605" type="line"/>
      <point x="146" y="605" type="line"/>
      <point x="146" y="694" type="line" smooth="yes"/>
      <point x="146" y="710"/>
      <point x="137" y="728"/>
      <point x="125" y="740" type="curve"/>
      <point x="137" y="751"/>
      <point x="146" y="769"/>
      <point x="146" y="785" type="curve" smooth="yes"/>
      <point x="146" y="874" type="line"/>
      <point x="-31" y="874" type="line"/>
      <point x="-31" y="785" type="line" smooth="yes"/>
      <point x="-31" y="778"/>
      <point x="-29" y="771"/>
      <point x="-27" y="765" type="curve"/>
      <point x="-95" y="765" type="line" smooth="yes"/>
      <point x="-123" y="765"/>
      <point x="-146" y="744"/>
      <point x="-146" y="719" type="curve" smooth="yes"/>
      <point x="-146" y="687"/>
      <point x="-123" y="670"/>
      <point x="-95" y="670" type="curve" smooth="yes"/>
      <point x="-67" y="670"/>
      <point x="-44" y="691"/>
      <point x="-44" y="716" type="curve" smooth="yes"/>
      <point x="-44" y="721"/>
      <point x="-44" y="724"/>
      <point x="-45" y="727" type="curve"/>
      <point x="-21" y="727" type="line"/>
      <point x="-26" y="717"/>
      <point x="-31" y="705"/>
      <point x="-31" y="695" type="curve" smooth="yes"/>
    </contour>
    <contour>
      <point x="-95" y="701" type="curve" smooth="yes"/>
      <point x="-104" y="701"/>
      <point x="-111" y="709"/>
      <point x="-111" y="718" type="curve" smooth="yes"/>
      <point x="-111" y="727"/>
      <point x="-104" y="734"/>
      <point x="-96" y="734" type="curve" smooth="yes"/>
      <point x="-85" y="734"/>
      <point x="-79" y="727"/>
      <point x="-79" y="718" type="curve" smooth="yes"/>
      <point x="-79" y="709"/>
      <point x="-86" y="701"/>
    </contour>
    <contour>
      <point x="24" y="649" type="line"/>
      <point x="24" y="670" type="line" smooth="yes"/>
      <point x="24" y="700"/>
      <point x="24" y="721"/>
      <point x="58" y="721" type="curve" smooth="yes"/>
      <point x="86" y="721"/>
      <point x="90" y="703"/>
      <point x="90" y="670" type="curve" smooth="yes"/>
      <point x="90" y="649" type="line"/>
    </contour>
    <contour>
      <point x="58" y="758" type="curve" smooth="yes"/>
      <point x="24" y="758"/>
      <point x="24" y="780"/>
      <point x="24" y="810" type="curve" smooth="yes"/>
      <point x="24" y="830" type="line"/>
      <point x="90" y="830" type="line"/>
      <point x="90" y="809" type="line" smooth="yes"/>
      <point x="90" y="777"/>
      <point x="86" y="758"/>
    </contour>
  </outline>
</glyph>
<glyph name="u1E020" format="2">
  <unicode hex="1E020"/>
  <outline>
    <contour>
      <point x="-37" y="605" type="line"/>
      <point x="140" y="605" type="line"/>
      <point x="140" y="694" type="line" smooth="yes"/>
      <point x="140" y="710"/>
      <point x="132" y="728"/>
      <point x="120" y="740" type="curve"/>
      <point x="132" y="751"/>
      <point x="140" y="769"/>
      <point x="140" y="785" type="curve" smooth="yes"/>
      <point x="140" y="874" type="line"/>
      <point x="-37" y="874" type="line"/>
      <point x="-37" y="785" type="line" smooth="yes"/>
      <point x="-37" y="778"/>
      <point x="-35" y="771"/>
      <point x="-32" y="765" type="curve"/>
      <point x="-95" y="765" type="line" smooth="yes"/>
      <point x="-120" y="765"/>
      <point x="-140" y="745"/>
      <point x="-140" y="722" type="curve" smooth="yes"/>
      <point x="-140" y="692"/>
      <point x="-120" y="677"/>
      <point x="-95" y="677" type="curve" smooth="yes"/>
      <point x="-70" y="677"/>
      <point x="-50" y="696"/>
      <point x="-50" y="720" type="curve" smooth="yes"/>
      <point x="-50" y="721"/>
      <point x="-50" y="724"/>
      <point x="-51" y="727" type="curve"/>
      <point x="-26" y="727" type="line"/>
      <point x="-32" y="717"/>
      <point x="-37" y="705"/>
      <point x="-37" y="695" type="curve" smooth="yes"/>
    </contour>
    <contour>
      <point x="19" y="649" type="line"/>
      <point x="19" y="670" type="line" smooth="yes"/>
      <point x="19" y="700"/>
      <point x="19" y="721"/>
      <point x="52" y="721" type="curve" smooth="yes"/>
      <point x="81" y="721"/>
      <point x="84" y="703"/>
      <point x="84" y="670" type="curve" smooth="yes"/>
      <point x="84" y="649" type="line"/>
    </contour>
    <contour>
      <point x="52" y="758" type="curve" smooth="yes"/>
      <point x="19" y="758"/>
      <point x="19" y="780"/>
      <point x="19" y="810" type="curve" smooth="yes"/>
      <point x="19" y="830" type="line"/>
      <point x="84" y="830" type="line"/>
      <point x="84" y="809" type="line" smooth="yes"/>
      <point x="84" y="777"/>
      <point x="81" y="758"/>
    </contour>
  </outline>
</glyph>
<glyph name="u1E023" format="2">
  <unicode hex="1E023"/>
  <outline>
    <contour>
      <point x="-158" y="571" type="line"/>
      <point x="137" y="655" type="line" smooth="yes"/>
      <point x="157" y="661"/>
      <point x="158" y="682"/>
      <point x="158" y="711" type="curve" smooth="yes"/>
      <point x="158" y="828" type="line" smooth="yes"/>
      <point x="158" y="859"/>
      <point x="156" y="874"/>
      <point x="119" y="874" type="curve" smooth="yes"/>
      <point x="-119" y="874" type="line" smooth="yes"/>
      <point x="-156" y="874"/>
      <point x="-158" y="859"/>
      <point x="-158" y="828" type="curve" smooth="yes"/>
    </contour>
    <contour>
      <point x="-102" y="632" type="line"/>
      <point x="-102" y="813" type="line" smooth="yes"/>
      <point x="-102" y="826"/>
      <point x="-100" y="830"/>
      <point x="-85" y="830" type="curve" smooth="yes"/>
      <point x="-28" y="830" type="line"/>
      <point x="-28" y="653" type="line"/>
    </contour>
    <contour>
      <point x="28" y="669" type="line"/>
      <point x="28" y="830" type="line"/>
      <point x="85" y="830" type="line" smooth="yes"/>
      <point x="100" y="830"/>
      <point x="103" y="826"/>
      <point x="103" y="813" type="curve" smooth="yes"/>
      <point x="103" y="709" type="line" smooth="yes"/>
      <point x="103" y="698"/>
      <point x="100" y="691"/>
      <point x="89" y="688" type="curve" smooth="yes"/>
    </contour>
  </outline>
</glyph>
<glyph name="u1E024" format="2">
  <unicode hex="1E024"/>
  <outline>
    <contour>
      <point x="59" y="601" type="curve" smooth="yes"/>
      <point x="93" y="601"/>
      <point x="115" y="606"/>
      <point x="137" y="615" type="curve"/>
      <point x="137" y="662" type="line"/>
      <point x="114" y="654"/>
      <point x="90" y="646"/>
      <point x="58" y="646" type="curve" smooth="yes"/>
      <point x="2" y="646"/>
      <point x="-25" y="674"/>
      <point x="-32" y="723" type="curve"/>
      <point x="107" y="723" type="line"/>
      <point x="107" y="765" type="line"/>
      <point x="-31" y="765" type="line"/>
      <point x="-25" y="814"/>
      <point x="6" y="832"/>
      <point x="51" y="832" type="curve" smooth="yes"/>
      <point x="71" y="832"/>
      <point x="99" y="826"/>
      <point x="119" y="819" type="curve"/>
      <point x="134" y="863" type="line"/>
      <point x="113" y="872"/>
      <point x="81" y="879"/>
      <point x="51" y="879" type="curve" smooth="yes"/>
      <point x="-24" y="879"/>
      <point x="-79" y="846"/>
      <point x="-89" y="765" type="curve"/>
      <point x="-137" y="765" type="line"/>
      <point x="-137" y="723" type="line"/>
      <point x="-90" y="723" type="line"/>
      <point x="-83" y="638"/>
      <point x="-23" y="601"/>
    </contour>
  </outline>
</glyph>
<glyph name="u1E026" format="2">
  <unicode hex="1E026"/>
  <outline>
    <contour>
      <point x="-90" y="605" type="line"/>
      <point x="87" y="605" type="line"/>
      <point x="87" y="694" type="line" smooth="yes"/>
      <point x="87" y="704"/>
      <point x="84" y="713"/>
      <point x="80" y="723" type="curve"/>
      <point x="179" y="723" type="line"/>
      <point x="97" y="874" type="line"/>
      <point x="-102" y="874" type="line"/>
      <point x="-103" y="874"/>
      <point x="-104" y="870"/>
      <point x="-179" y="723" type="curve"/>
      <point x="-82" y="723" type="line"/>
      <point x="-86" y="714"/>
      <point x="-90" y="704"/>
      <point x="-90" y="695" type="curve" smooth="yes"/>
    </contour>
    <contour>
      <point x="-34" y="649" type="line"/>
      <point x="-34" y="670" type="line" smooth="yes"/>
      <point x="-34" y="700"/>
      <point x="-34" y="721"/>
      <point x="-1" y="721" type="curve" smooth="yes"/>
      <point x="28" y="721"/>
      <point x="31" y="703"/>
      <point x="31" y="670" type="curve" smooth="yes"/>
      <point x="31" y="649" type="line"/>
    </contour>
    <contour>
      <point x="-106" y="765" type="line"/>
      <point x="-71" y="832" type="line"/>
      <point x="-26" y="832" type="line"/>
      <point x="-26" y="765" type="line"/>
    </contour>
    <contour>
      <point x="24" y="765" type="line"/>
      <point x="24" y="832" type="line"/>
      <point x="66" y="832" type="line"/>
      <point x="101" y="765" type="line"/>
    </contour>
  </outline>
</glyph>
<glyph name="u1E027" format="2">
  <unicode hex="1E027"/>
  <outline>
    <contour>
      <point x="-144" y="601" type="curve" smooth="yes"/>
      <point x="-76" y="601"/>
      <point x="-25" y="638"/>
      <point x="-20" y="723" type="curve"/>
      <point x="21" y="723" type="line"/>
      <point x="26" y="638"/>
      <point x="77" y="601"/>
      <point x="145" y="601" type="curve" smooth="yes"/>
      <point x="168" y="601"/>
      <point x="182" y="603"/>
      <point x="196" y="605" type="curve"/>
      <point x="196" y="652" type="line"/>
      <point x="181" y="649"/>
      <point x="169" y="646"/>
      <point x="146" y="646" type="curve" smooth="yes"/>
      <point x="103" y="646"/>
      <point x="85" y="674"/>
      <point x="79" y="723" type="curve"/>
      <point x="174" y="723" type="line"/>
      <point x="174" y="765" type="line"/>
      <point x="80" y="765" type="line"/>
      <point x="85" y="814"/>
      <point x="106" y="832"/>
      <point x="139" y="832" type="curve" smooth="yes"/>
      <point x="157" y="832"/>
      <point x="173" y="829"/>
      <point x="187" y="826" type="curve"/>
      <point x="198" y="872" type="line"/>
      <point x="180" y="875"/>
      <point x="165" y="879"/>
      <point x="141" y="879" type="curve" smooth="yes"/>
      <point x="75" y="879"/>
      <point x="29" y="846"/>
      <point x="21" y="765" type="curve"/>
      <point x="-21" y="765" type="line"/>
      <point x="-29" y="846"/>
      <point x="-75" y="879"/>
      <point x="-140" y="879" type="curve" smooth="yes"/>
      <point x="-164" y="879"/>
      <point x="-180" y="875"/>
      <point x="-197" y="872" type="curve"/>
      <point x="-187" y="826" type="line"/>
      <point x="-172" y="829"/>
      <point x="-156" y="832"/>
      <point x="-139" y="832" type="curve" smooth="yes"/>
      <point x="-106" y="832"/>
      <point x="-85" y="814"/>
      <point x="-79" y="765" type="curve"/>
      <point x="-173" y="765" type="line"/>
      <point x="-173" y="723" type="line"/>
      <point x="-78" y="723" type="line"/>
      <point x="-85" y="674"/>
      <point x="-103" y="646"/>
      <point x="-146" y="646" type="curve" smooth="yes"/>
      <point x="-169" y="646"/>
      <point x="-180" y="649"/>
      <point x="-195" y="652" type="curve"/>
      <point x="-195" y="605" type="line"/>
      <point x="-181" y="603"/>
      <point x="-167" y="601"/>
    </contour>
  </outline>
</glyph>
